<?xml version="1.0" encoding="UTF-8" standalone="no"?>
<svg width="16.5806mm" height="15.1694mm"
 viewBox="0 0 47 43"
 xmlns="http://www.w3.org/2000/svg" xmlns:xlink="http://www.w3.org/1999/xlink"  version="1.2" baseProfile="tiny">
<title>ACHRES71</title>
<desc>area where anchoring is prohibited or restricted, with other information</desc>
<defs>
</defs>
<g fill="none" stroke="black" vector-effect="non-scaling-stroke" stroke-width="1" fill-rule="evenodd" stroke-linecap="square" stroke-linejoin="bevel" >

<g fill="none" stroke="#d4b1dd" stroke-opacity="1" stroke-width="1" stroke-linecap="square" stroke-linejoin="bevel" transform="matrix(1,0,0,1,0,0)"
font-family="Sans" font-size="10" font-weight="400" font-style="normal" 
>
<path fill-rule="evenodd" d="M25.744,0.568 L25.744,10.568 L15.744,10.568 L15.744,14.568 L25.744,14.568 L25.744,36.568 L18.744,34.568 L12.744,30.568 L6.744,30.568 L15.744,36.568 L27.744,41.568 L38.744,36.568 L46.744,30.568 L41.744,30.568 L34.744,34.568 L27.744,36.568 L27.744,14.568 L38.744,14.568 L38.744,10.568 L27.744,10.568 L27.744,0.568 L25.744,0.568"/>
</g>

<g fill="none" stroke="#d4b1dd" stroke-opacity="1" stroke-width="3" stroke-linecap="square" stroke-linejoin="bevel" transform="matrix(1,0,0,1,0,0)"
font-family="Sans" font-size="10" font-weight="400" font-style="normal" 
>
<path fill-rule="evenodd" d="M41.744,6.568 L9.744,38.568"/>
</g>

<g fill="none" stroke="#c64dbb" stroke-opacity="1" stroke-width="1" stroke-linecap="square" stroke-linejoin="bevel" transform="matrix(1,0,0,1,0,0)"
font-family="Sans" font-size="10" font-weight="400" font-style="normal" 
>
<path fill-rule="evenodd" d="M2.744,41.568 L2.744,33.568 L-0.256,33.568"/>
<path fill-rule="evenodd" d="M-0.256,41.568 L5.744,41.568"/>
<path fill-rule="evenodd" d="M1.744,30.568 L1.744,31.568"/>
</g>
</g>
</svg>
