<?xml version="1.0" encoding="UTF-8" standalone="no"?>
<svg width="6.70278mm" height="8.81944mm"
 viewBox="0 0 19 25"
 xmlns="http://www.w3.org/2000/svg" xmlns:xlink="http://www.w3.org/1999/xlink"  version="1.2" baseProfile="tiny">
<title>AISDEF01</title>
<desc>AIS target whose heading and course are both unknown</desc>
<defs>
</defs>
<g fill="none" stroke="black" vector-effect="non-scaling-stroke" stroke-width="1" fill-rule="evenodd" stroke-linecap="square" stroke-linejoin="bevel" >

<g fill="none" stroke="#40aaa5" stroke-opacity="1" stroke-width="1" stroke-linecap="square" stroke-linejoin="bevel" transform="matrix(1,0,0,1,0,0)"
font-family="Sans" font-size="10" font-weight="400" font-style="normal" 
>
</g>

<g fill="#40aaa5" fill-opacity="1" stroke="#40aaa5" stroke-opacity="1" stroke-width="1" stroke-linecap="square" stroke-linejoin="bevel" transform="matrix(1,0,0,1,0,0)"
font-family="Sans" font-size="10" font-weight="400" font-style="normal" 
>
<path fill-rule="evenodd" d=""/>
</g>

<g fill="none" stroke="#40aaa5" stroke-opacity="1" stroke-width="1" stroke-linecap="square" stroke-linejoin="bevel" transform="matrix(1,0,0,1,0,0)"
font-family="Sans" font-size="10" font-weight="400" font-style="normal" 
>
</g>

<g fill="#40aaa5" fill-opacity="1" stroke="#40aaa5" stroke-opacity="1" stroke-width="1" stroke-linecap="square" stroke-linejoin="bevel" transform="matrix(1,0,0,1,0,0)"
font-family="Sans" font-size="10" font-weight="400" font-style="normal" 
>
<path fill-rule="evenodd" d="M4.6,21.128"/>
</g>

<g fill="none" stroke="#40aaa5" stroke-opacity="1" stroke-width="1" stroke-linecap="square" stroke-linejoin="bevel" transform="matrix(1,0,0,1,0,0)"
font-family="Sans" font-size="10" font-weight="400" font-style="normal" 
>
<path fill-rule="evenodd" d="M4.6,21.128"/>
</g>

<g fill="none" stroke="#40aaa5" stroke-opacity="1" stroke-width="2" stroke-linecap="square" stroke-linejoin="bevel" transform="matrix(1,0,0,1,0,0)"
font-family="Sans" font-size="10" font-weight="400" font-style="normal" 
>
<path fill-rule="evenodd" d="M0.6,24.128 L8.6,24.128 L4.6,0.128 L0.6,24.128"/>
</g>

<g fill="none" stroke="#c64dbb" stroke-opacity="1" stroke-width="1" stroke-linecap="square" stroke-linejoin="bevel" transform="matrix(1,0,0,1,0,0)"
font-family="Sans" font-size="10" font-weight="400" font-style="normal" 
>
<path fill-rule="evenodd" d="M10.6,8.128 L11.6,7.128 L11.6,6.128 L12.6,6.128 L12.6,5.128 L13.6,5.128 L14.6,5.128 L15.6,5.128 L16.6,5.128 L17.6,6.128 L17.6,7.128 L18.6,8.128 L18.6,9.128 L17.6,9.128 L17.6,10.128 L16.6,11.128 L15.6,12.128 L14.6,13.128 L14.6,14.128 L14.6,15.128 L14.6,16.128"/>
<path fill-rule="evenodd" d="M13.6,17.128 L14.6,17.128"/>
</g>
</g>
</svg>
