<?xml version="1.0" encoding="UTF-8" standalone="no"?>
<svg width="7.05556mm" height="5.99722mm"
 viewBox="0 0 20 17"
 xmlns="http://www.w3.org/2000/svg" xmlns:xlink="http://www.w3.org/1999/xlink"  version="1.2" baseProfile="tiny">
<title>BCNGEN03</title>
<desc>default symbol for beacon, paper-chart</desc>
<defs>
</defs>
<g fill="none" stroke="black" vector-effect="non-scaling-stroke" stroke-width="1" fill-rule="evenodd" stroke-linecap="square" stroke-linejoin="bevel" >

<g fill="none" stroke="#c64dbb" stroke-opacity="1" stroke-width="1" stroke-linecap="square" stroke-linejoin="bevel" transform="matrix(1,0,0,1,0,0)"
font-family="Sans" font-size="10" font-weight="400" font-style="normal" 
>
<path fill-rule="evenodd" d="M12.048,3.624 L12.048,2.624 L13.048,1.624 L14.048,0.624 L15.048,0.624 L16.048,0.624 L17.048,1.624 L18.048,2.624 L19.048,2.624 L19.048,3.624 L19.048,4.624 L19.048,5.624 L18.048,5.624 L18.048,6.624 L17.048,7.624 L16.048,8.624 L15.048,9.624 L15.048,10.624 L15.048,11.624 L15.048,12.624"/>
</g>

<g fill="none" stroke="#c64dbb" stroke-opacity="1" stroke-width="2" stroke-linecap="square" stroke-linejoin="bevel" transform="matrix(1,0,0,1,0,0)"
font-family="Sans" font-size="10" font-weight="400" font-style="normal" 
>
<path fill-rule="evenodd" d="M15.048,14.624 L16.048,14.624"/>
</g>

<g fill="none" stroke="#070707" stroke-opacity="1" stroke-width="2" stroke-linecap="square" stroke-linejoin="bevel" transform="matrix(1,0,0,1,0,0)"
font-family="Sans" font-size="10" font-weight="400" font-style="normal" 
>
<path fill-rule="evenodd" d="M0.048,12.624 L10.048,12.624"/>
<path fill-rule="evenodd" d="M6.048,14.624 C6.048,15.1763 5.60028,15.624 5.048,15.624 C4.49572,15.624 4.048,15.1763 4.048,14.624 C4.048,14.0717 4.49572,13.624 5.048,13.624 C5.60028,13.624 6.048,14.0717 6.048,14.624 "/>
</g>

<g fill="none" stroke="#070707" stroke-opacity="1" stroke-width="4" stroke-linecap="square" stroke-linejoin="bevel" transform="matrix(1,0,0,1,0,0)"
font-family="Sans" font-size="10" font-weight="400" font-style="normal" 
>
<path fill-rule="evenodd" d="M5.048,12.624 L5.048,0.624"/>
</g>
</g>
</svg>
