<?xml version="1.0" encoding="UTF-8" standalone="no"?>
<svg width="2.82222mm" height="6.70278mm"
 viewBox="0 0 8 19"
 xmlns="http://www.w3.org/2000/svg" xmlns:xlink="http://www.w3.org/1999/xlink"  version="1.2" baseProfile="tiny">
<title>BCNISD21</title>
<desc>isolated danger beacon, simplified</desc>
<defs>
</defs>
<g fill="none" stroke="black" vector-effect="non-scaling-stroke" stroke-width="1" fill-rule="evenodd" stroke-linecap="square" stroke-linejoin="bevel" >

<g fill="none" stroke="#ee5a6c" stroke-opacity="1" stroke-width="1" stroke-linecap="square" stroke-linejoin="bevel" transform="matrix(1,0,0,1,0,0)"
font-family="Sans" font-size="10" font-weight="400" font-style="normal" 
>
</g>

<g fill="#ee5a6c" fill-opacity="1" stroke="#ee5a6c" stroke-opacity="1" stroke-width="1" stroke-linecap="square" stroke-linejoin="bevel" transform="matrix(1,0,0,1,0,0)"
font-family="Sans" font-size="10" font-weight="400" font-style="normal" 
>
<path fill-rule="evenodd" d="M6.448,3.312 C6.448,4.96885 5.10485,6.312 3.448,6.312 C1.79115,6.312 0.448,4.96885 0.448,3.312 C0.448,1.65515 1.79115,0.312 3.448,0.312 C5.10485,0.312 6.448,1.65515 6.448,3.312 "/>
</g>

<g fill="none" stroke="#ee5a6c" stroke-opacity="1" stroke-width="1" stroke-linecap="square" stroke-linejoin="bevel" transform="matrix(1,0,0,1,0,0)"
font-family="Sans" font-size="10" font-weight="400" font-style="normal" 
>
</g>

<g fill="#ee5a6c" fill-opacity="1" stroke="#ee5a6c" stroke-opacity="1" stroke-width="1" stroke-linecap="square" stroke-linejoin="bevel" transform="matrix(1,0,0,1,0,0)"
font-family="Sans" font-size="10" font-weight="400" font-style="normal" 
>
<path fill-rule="evenodd" d="M3.448,3.312"/>
</g>

<g fill="none" stroke="#ee5a6c" stroke-opacity="1" stroke-width="1" stroke-linecap="square" stroke-linejoin="bevel" transform="matrix(1,0,0,1,0,0)"
font-family="Sans" font-size="10" font-weight="400" font-style="normal" 
>
<path fill-rule="evenodd" d="M3.448,3.312"/>
</g>

<g fill="#ee5a6c" fill-opacity="1" stroke="#ee5a6c" stroke-opacity="1" stroke-width="1" stroke-linecap="square" stroke-linejoin="bevel" transform="matrix(1,0,0,1,0,0)"
font-family="Sans" font-size="10" font-weight="400" font-style="normal" 
>
<path fill-rule="evenodd" d="M6.448,14.312 C6.448,15.9689 5.10485,17.312 3.448,17.312 C1.79115,17.312 0.448,15.9689 0.448,14.312 C0.448,12.6551 1.79115,11.312 3.448,11.312 C5.10485,11.312 6.448,12.6551 6.448,14.312 "/>
</g>

<g fill="none" stroke="#ee5a6c" stroke-opacity="1" stroke-width="1" stroke-linecap="square" stroke-linejoin="bevel" transform="matrix(1,0,0,1,0,0)"
font-family="Sans" font-size="10" font-weight="400" font-style="normal" 
>
</g>

<g fill="#ee5a6c" fill-opacity="1" stroke="#ee5a6c" stroke-opacity="1" stroke-width="1" stroke-linecap="square" stroke-linejoin="bevel" transform="matrix(1,0,0,1,0,0)"
font-family="Sans" font-size="10" font-weight="400" font-style="normal" 
>
<path fill-rule="evenodd" d="M3.448,14.312"/>
</g>

<g fill="none" stroke="#ee5a6c" stroke-opacity="1" stroke-width="1" stroke-linecap="square" stroke-linejoin="bevel" transform="matrix(1,0,0,1,0,0)"
font-family="Sans" font-size="10" font-weight="400" font-style="normal" 
>
<path fill-rule="evenodd" d="M3.448,14.312"/>
</g>

<g fill="none" stroke="#070707" stroke-opacity="1" stroke-width="1" stroke-linecap="square" stroke-linejoin="bevel" transform="matrix(1,0,0,1,0,0)"
font-family="Sans" font-size="10" font-weight="400" font-style="normal" 
>
<path fill-rule="evenodd" d="M6.448,3.312 C6.448,4.96885 5.10485,6.312 3.448,6.312 C1.79115,6.312 0.448,4.96885 0.448,3.312 C0.448,1.65515 1.79115,0.312 3.448,0.312 C5.10485,0.312 6.448,1.65515 6.448,3.312 "/>
<path fill-rule="evenodd" d="M6.448,14.312 C6.448,15.9689 5.10485,17.312 3.448,17.312 C1.79115,17.312 0.448,15.9689 0.448,14.312 C0.448,12.6551 1.79115,11.312 3.448,11.312 C5.10485,11.312 6.448,12.6551 6.448,14.312 "/>
</g>
</g>
</svg>
