<?xml version="1.0" encoding="UTF-8" standalone="no"?>
<svg width="7.40833mm" height="5.29167mm"
 viewBox="0 0 21 15"
 xmlns="http://www.w3.org/2000/svg" xmlns:xlink="http://www.w3.org/1999/xlink"  version="1.2" baseProfile="tiny">
<title>BOYBAR01</title>
<desc>barrel buoy, paper-chart</desc>
<defs>
</defs>
<g fill="none" stroke="black" vector-effect="non-scaling-stroke" stroke-width="1" fill-rule="evenodd" stroke-linecap="square" stroke-linejoin="bevel" >

<g fill="none" stroke="#070707" stroke-opacity="1" stroke-width="2" stroke-linecap="square" stroke-linejoin="bevel" transform="matrix(1,0,0,1,0,0)"
font-family="Sans" font-size="10" font-weight="400" font-style="normal" 
>
<path fill-rule="evenodd" d="M13,13.12 C13,13.6723 12.5523,14.12 12,14.12 C11.4477,14.12 11,13.6723 11,13.12 C11,12.5677 11.4477,12.12 12,12.12 C12.5523,12.12 13,12.5677 13,13.12 M2,13.12 L2,8.12 L2,5.12 L3,3.12 M5,2.12 L6,1.12 L8,0.12 L9,0.12"/>
<path fill-rule="evenodd" d="M9,0.12 L11,0.12 L12,0.12 L14,1.12 L16,2.12 L17,3.12 L17,5.12 L18,6.12 L18,8.12 L18,13.12 M4,2.12"/>
<path fill-rule="evenodd" d="M4,2.12 L5,4.12 L7,5.12 L7,7.12 L8,10.12 L8,11.12 L8,13.12 M13,13.12 L20,13.12 M3,3.12 L5,2.12"/>
<path fill-rule="evenodd" d="M10,13.12 L0,13.12"/>
</g>
</g>
</svg>
