<?xml version="1.0" encoding="UTF-8" standalone="no"?>
<svg width="7.05556mm" height="5.99722mm"
 viewBox="0 0 20 17"
 xmlns="http://www.w3.org/2000/svg" xmlns:xlink="http://www.w3.org/1999/xlink"  version="1.2" baseProfile="tiny">
<title>BOYCON01</title>
<desc>conical buoy, paper-chart</desc>
<defs>
</defs>
<g fill="none" stroke="black" vector-effect="non-scaling-stroke" stroke-width="1" fill-rule="evenodd" stroke-linecap="square" stroke-linejoin="bevel" >

<g fill="none" stroke="#070707" stroke-opacity="1" stroke-width="2" stroke-linecap="square" stroke-linejoin="bevel" transform="matrix(1,0,0,1,0,0)"
font-family="Sans" font-size="10" font-weight="400" font-style="normal" 
>
<path fill-rule="evenodd" d="M10.856,14.656 C10.856,15.2083 10.4083,15.656 9.856,15.656 C9.30372,15.656 8.856,15.2083 8.856,14.656 C8.856,14.1037 9.30372,13.656 9.856,13.656 C10.4083,13.656 10.856,14.1037 10.856,14.656 M1.856,14.656 L2.856,11.656 L2.856,8.656 L3.856,6.656 L5.856,4.656 L6.856,3.656 L7.856,2.656 L9.856,0.656 L11.856,-0.344"/>
<path fill-rule="evenodd" d="M11.856,-0.344 L11.856,0.656 L13.856,3.656 L14.856,6.656 L15.856,8.656 M-0.144,14.656 L7.856,14.656 M15.856,8.656 L15.856,11.656 L15.856,14.656 M10.856,14.656 L18.856,14.656"/>
</g>
</g>
</svg>
