<?xml version="1.0" encoding="UTF-8" standalone="no"?>
<svg width="9.17222mm" height="5.64444mm"
 viewBox="0 0 26 16"
 xmlns="http://www.w3.org/2000/svg" xmlns:xlink="http://www.w3.org/1999/xlink"  version="1.2" baseProfile="tiny">
<title>BOYGEN03</title>
<desc>default symbol for buoy, paper-chart</desc>
<defs>
</defs>
<g fill="none" stroke="black" vector-effect="non-scaling-stroke" stroke-width="1" fill-rule="evenodd" stroke-linecap="square" stroke-linejoin="bevel" >

<g fill="none" stroke="#c64dbb" stroke-opacity="1" stroke-width="1" stroke-linecap="square" stroke-linejoin="bevel" transform="matrix(1,0,0,1,0,0)"
font-family="Sans" font-size="10" font-weight="400" font-style="normal" 
>
<path fill-rule="evenodd" d="M17.6,3.224 L17.6,2.224 L18.6,1.224 L19.6,0.224 L20.6,0.224 L21.6,0.224 L22.6,0.224 L23.6,2.224 L24.6,2.224 L24.6,3.224 L24.6,4.224 L23.6,5.224 L23.6,6.224 L22.6,7.224 L21.6,8.224 L20.6,9.224 L20.6,10.224 L20.6,11.224"/>
</g>

<g fill="none" stroke="#c64dbb" stroke-opacity="1" stroke-width="2" stroke-linecap="square" stroke-linejoin="bevel" transform="matrix(1,0,0,1,0,0)"
font-family="Sans" font-size="10" font-weight="400" font-style="normal" 
>
<path fill-rule="evenodd" d="M20.6,14.224 L21.6,14.224"/>
</g>

<g fill="none" stroke="#070707" stroke-opacity="1" stroke-width="2" stroke-linecap="square" stroke-linejoin="bevel" transform="matrix(1,0,0,1,0,0)"
font-family="Sans" font-size="10" font-weight="400" font-style="normal" 
>
<path fill-rule="evenodd" d="M13.6,6.224 C13.6,8.98542 11.3614,11.224 8.6,11.224 C5.83858,11.224 3.6,8.98542 3.6,6.224 C3.6,3.46258 5.83858,1.224 8.6,1.224 C11.3614,1.224 13.6,3.46258 13.6,6.224 "/>
<path fill-rule="evenodd" d="M9.6,13.224 C9.6,13.7763 9.15228,14.224 8.6,14.224 C8.04772,14.224 7.6,13.7763 7.6,13.224 C7.6,12.6717 8.04772,12.224 8.6,12.224 C9.15228,12.224 9.6,12.6717 9.6,13.224 "/>
<path fill-rule="evenodd" d="M10.6,13.224 L16.6,13.224"/>
<path fill-rule="evenodd" d="M0.6,13.224 L6.6,13.224"/>
</g>
</g>
</svg>
