<?xml version="1.0" encoding="UTF-8" standalone="no"?>
<svg width="4.58611mm" height="6.70278mm"
 viewBox="0 0 13 19"
 xmlns="http://www.w3.org/2000/svg" xmlns:xlink="http://www.w3.org/1999/xlink"  version="1.2" baseProfile="tiny">
<title>BOYISD12</title>
<desc>isolated danger buoy, simplified</desc>
<defs>
</defs>
<g fill="none" stroke="black" vector-effect="non-scaling-stroke" stroke-width="1" fill-rule="evenodd" stroke-linecap="square" stroke-linejoin="bevel" >

<g fill="none" stroke="#ee5a6c" stroke-opacity="1" stroke-width="1" stroke-linecap="square" stroke-linejoin="bevel" transform="matrix(1,0,0,1,0,0)"
font-family="Sans" font-size="10" font-weight="400" font-style="normal" 
>
</g>

<g fill="#ee5a6c" fill-opacity="1" stroke="#ee5a6c" stroke-opacity="1" stroke-width="1" stroke-linecap="square" stroke-linejoin="bevel" transform="matrix(1,0,0,1,0,0)"
font-family="Sans" font-size="10" font-weight="400" font-style="normal" 
>
<path fill-rule="evenodd" d="M11.928,3.344 C11.928,5.00085 10.5849,6.344 8.928,6.344 C7.27115,6.344 5.928,5.00085 5.928,3.344 C5.928,1.68715 7.27115,0.344 8.928,0.344 C10.5849,0.344 11.928,1.68715 11.928,3.344 "/>
</g>

<g fill="none" stroke="#ee5a6c" stroke-opacity="1" stroke-width="1" stroke-linecap="square" stroke-linejoin="bevel" transform="matrix(1,0,0,1,0,0)"
font-family="Sans" font-size="10" font-weight="400" font-style="normal" 
>
</g>

<g fill="#ee5a6c" fill-opacity="1" stroke="#ee5a6c" stroke-opacity="1" stroke-width="1" stroke-linecap="square" stroke-linejoin="bevel" transform="matrix(1,0,0,1,0,0)"
font-family="Sans" font-size="10" font-weight="400" font-style="normal" 
>
<path fill-rule="evenodd" d="M8.928,3.344"/>
</g>

<g fill="none" stroke="#ee5a6c" stroke-opacity="1" stroke-width="1" stroke-linecap="square" stroke-linejoin="bevel" transform="matrix(1,0,0,1,0,0)"
font-family="Sans" font-size="10" font-weight="400" font-style="normal" 
>
<path fill-rule="evenodd" d="M8.928,3.344"/>
</g>

<g fill="#ee5a6c" fill-opacity="1" stroke="#ee5a6c" stroke-opacity="1" stroke-width="1" stroke-linecap="square" stroke-linejoin="bevel" transform="matrix(1,0,0,1,0,0)"
font-family="Sans" font-size="10" font-weight="400" font-style="normal" 
>
<path fill-rule="evenodd" d="M6.928,14.344 C6.928,16.0009 5.58485,17.344 3.928,17.344 C2.27115,17.344 0.928,16.0009 0.928,14.344 C0.928,12.6871 2.27115,11.344 3.928,11.344 C5.58485,11.344 6.928,12.6871 6.928,14.344 "/>
</g>

<g fill="none" stroke="#ee5a6c" stroke-opacity="1" stroke-width="1" stroke-linecap="square" stroke-linejoin="bevel" transform="matrix(1,0,0,1,0,0)"
font-family="Sans" font-size="10" font-weight="400" font-style="normal" 
>
</g>

<g fill="#ee5a6c" fill-opacity="1" stroke="#ee5a6c" stroke-opacity="1" stroke-width="1" stroke-linecap="square" stroke-linejoin="bevel" transform="matrix(1,0,0,1,0,0)"
font-family="Sans" font-size="10" font-weight="400" font-style="normal" 
>
<path fill-rule="evenodd" d="M3.928,14.344"/>
</g>

<g fill="none" stroke="#ee5a6c" stroke-opacity="1" stroke-width="1" stroke-linecap="square" stroke-linejoin="bevel" transform="matrix(1,0,0,1,0,0)"
font-family="Sans" font-size="10" font-weight="400" font-style="normal" 
>
<path fill-rule="evenodd" d="M3.928,14.344"/>
</g>

<g fill="none" stroke="#070707" stroke-opacity="1" stroke-width="1" stroke-linecap="square" stroke-linejoin="bevel" transform="matrix(1,0,0,1,0,0)"
font-family="Sans" font-size="10" font-weight="400" font-style="normal" 
>
<path fill-rule="evenodd" d="M11.928,3.344 C11.928,5.00085 10.5849,6.344 8.928,6.344 C7.27115,6.344 5.928,5.00085 5.928,3.344 C5.928,1.68715 7.27115,0.344 8.928,0.344 C10.5849,0.344 11.928,1.68715 11.928,3.344 "/>
<path fill-rule="evenodd" d="M6.928,14.344 C6.928,16.0009 5.58485,17.344 3.928,17.344 C2.27115,17.344 0.928,16.0009 0.928,14.344 C0.928,12.6871 2.27115,11.344 3.928,11.344 C5.58485,11.344 6.928,12.6871 6.928,14.344 "/>
</g>
</g>
</svg>
