<?xml version="1.0" encoding="UTF-8" standalone="no"?>
<svg width="7.40833mm" height="7.05556mm"
 viewBox="0 0 21 20"
 xmlns="http://www.w3.org/2000/svg" xmlns:xlink="http://www.w3.org/1999/xlink"  version="1.2" baseProfile="tiny">
<title>BOYMOR01</title>
<desc>mooring buoy, barrel shape, paper-chart</desc>
<defs>
</defs>
<g fill="none" stroke="black" vector-effect="non-scaling-stroke" stroke-width="1" fill-rule="evenodd" stroke-linecap="square" stroke-linejoin="bevel" >

<g fill="none" stroke="#070707" stroke-opacity="1" stroke-width="2" stroke-linecap="square" stroke-linejoin="bevel" transform="matrix(1,0,0,1,0,0)"
font-family="Sans" font-size="10" font-weight="400" font-style="normal" 
>
<path fill-rule="evenodd" d="M12.68,17.28 C12.68,17.8323 12.2323,18.28 11.68,18.28 C11.1277,18.28 10.68,17.8323 10.68,17.28 C10.68,16.7277 11.1277,16.28 11.68,16.28 C12.2323,16.28 12.68,16.7277 12.68,17.28 M11.68,2.28 C11.68,3.38457 10.7846,4.28 9.68,4.28 C8.57543,4.28 7.68,3.38457 7.68,2.28 C7.68,1.17543 8.57543,0.28 9.68,0.28 C10.7846,0.28 11.68,1.17543 11.68,2.28 M12.68,17.28 L19.68,17.28 M8.68,17.28 L-0.32,17.28 M17.68,17.28 L17.68,12.28 M1.68,17.28"/>
<path fill-rule="evenodd" d="M1.68,17.28 L1.68,12.28 L1.68,11.28 L2.68,9.28 L3.68,7.28 L3.68,6.28 L5.68,5.28 L6.68,5.28 L7.68,4.28 L9.68,4.28 L11.68,4.28 L12.68,5.28 L14.68,6.28"/>
<path fill-rule="evenodd" d="M14.68,6.28 L15.68,7.28 L16.68,8.28 L17.68,10.28 L17.68,12.28 M3.68,6.28 L5.68,8.28 M6.68,11.28 L7.68,14.28 L7.68,15.28 L7.68,17.28 M5.68,8.28"/>
<path fill-rule="evenodd" d="M5.68,8.28 L6.68,11.28"/>
</g>
</g>
</svg>
