<?xml version="1.0" encoding="UTF-8" standalone="no"?>
<svg width="3.52778mm" height="5.99722mm"
 viewBox="0 0 10 17"
 xmlns="http://www.w3.org/2000/svg" xmlns:xlink="http://www.w3.org/1999/xlink"  version="1.2" baseProfile="tiny">
<title>BOYSPR01</title>
<desc>spar buoy, paper-chart</desc>
<defs>
</defs>
<g fill="none" stroke="black" vector-effect="non-scaling-stroke" stroke-width="1" fill-rule="evenodd" stroke-linecap="square" stroke-linejoin="bevel" >

<g fill="#070707" fill-opacity="1" stroke="#070707" stroke-opacity="1" vector-effect="non-scaling-stroke" stroke-width="1" stroke-linecap="square" stroke-linejoin="bevel" transform="matrix(1,0,0,1,0,0)"
font-family="Sans" font-size="10" font-weight="400" font-style="normal" 
>
<path fill-rule="evenodd" d="M3.344,14.464 L6.344,0.464 L9.344,0.464 L6.344,12.464 L5.344,12.464 L5.344,12.464 L5.344,12.464 L4.344,12.464 L2.344,14.464 L3.344,12.464 L3.344,12.464 L3.344,14.464"/>
</g>

<g fill="none" stroke="#000000" stroke-opacity="1" vector-effect="non-scaling-stroke" stroke-width="1" stroke-linecap="square" stroke-linejoin="bevel" transform="matrix(1,0,0,1,0,0)"
font-family="Sans" font-size="10" font-weight="400" font-style="normal" 
>
<path fill-rule="evenodd" d="M3.344,14.464"/>
</g>

<g fill="none" stroke="#070707" stroke-opacity="1" stroke-width="2" stroke-linecap="square" stroke-linejoin="bevel" transform="matrix(1,0,0,1,0,0)"
font-family="Sans" font-size="10" font-weight="400" font-style="normal" 
>
<path fill-rule="evenodd" d="M6.344,14.464 C6.344,15.0163 5.89628,15.464 5.344,15.464 C4.79172,15.464 4.344,15.0163 4.344,14.464 C4.344,13.9117 4.79172,13.464 5.344,13.464 C5.89628,13.464 6.344,13.9117 6.344,14.464 M0.344,14.464 L3.344,14.464 M6.344,14.464 L9.344,14.464"/>
</g>
</g>
</svg>
