<?xml version="1.0" encoding="UTF-8" standalone="no"?>
<svg width="4.93889mm" height="4.93889mm"
 viewBox="0 0 14 14"
 xmlns="http://www.w3.org/2000/svg" xmlns:xlink="http://www.w3.org/1999/xlink"  version="1.2" baseProfile="tiny">
<title>BOYSPP11</title>
<desc>special purpose buoy, simplified</desc>
<defs>
</defs>
<g fill="none" stroke="black" vector-effect="non-scaling-stroke" stroke-width="1" fill-rule="evenodd" stroke-linecap="square" stroke-linejoin="bevel" >

<g fill="#f3e54d" fill-opacity="1" stroke="#f3e54d" stroke-opacity="1" vector-effect="non-scaling-stroke" stroke-width="1" stroke-linecap="square" stroke-linejoin="bevel" transform="matrix(1,0,0,1,0,0)"
font-family="Sans" font-size="10" font-weight="400" font-style="normal" 
>
<path fill-rule="evenodd" d="M13.04,7.04 C13.04,10.3537 10.3537,13.04 7.04,13.04 C3.72629,13.04 1.04,10.3537 1.04,7.04 C1.04,3.72629 3.72629,1.04 7.04,1.04 C10.3537,1.04 13.04,3.72629 13.04,7.04 "/>
</g>

<g fill="none" stroke="#000000" stroke-opacity="1" vector-effect="non-scaling-stroke" stroke-width="1" stroke-linecap="square" stroke-linejoin="bevel" transform="matrix(1,0,0,1,0,0)"
font-family="Sans" font-size="10" font-weight="400" font-style="normal" 
>
</g>

<g fill="#f3e54d" fill-opacity="1" stroke="#f3e54d" stroke-opacity="1" vector-effect="non-scaling-stroke" stroke-width="1" stroke-linecap="square" stroke-linejoin="bevel" transform="matrix(1,0,0,1,0,0)"
font-family="Sans" font-size="10" font-weight="400" font-style="normal" 
>
<path fill-rule="evenodd" d="M7.04,7.04"/>
</g>

<g fill="none" stroke="#000000" stroke-opacity="1" vector-effect="non-scaling-stroke" stroke-width="1" stroke-linecap="square" stroke-linejoin="bevel" transform="matrix(1,0,0,1,0,0)"
font-family="Sans" font-size="10" font-weight="400" font-style="normal" 
>
</g>

<g fill="none" stroke="#070707" stroke-opacity="1" stroke-width="1" stroke-linecap="square" stroke-linejoin="bevel" transform="matrix(1,0,0,1,0,0)"
font-family="Sans" font-size="10" font-weight="400" font-style="normal" 
>
<path fill-rule="evenodd" d="M13.04,7.04 C13.04,10.3537 10.3537,13.04 7.04,13.04 C3.72629,13.04 1.04,10.3537 1.04,7.04 C1.04,3.72629 3.72629,1.04 7.04,1.04 C10.3537,1.04 13.04,3.72629 13.04,7.04 "/>
</g>

<g fill="#070707" fill-opacity="1" stroke="#070707" stroke-opacity="1" stroke-width="1" stroke-linecap="square" stroke-linejoin="bevel" transform="matrix(1,0,0,1,0,0)"
font-family="Sans" font-size="10" font-weight="400" font-style="normal" 
>
<path fill-rule="evenodd" d=""/>
</g>

<g fill="none" stroke="#070707" stroke-opacity="1" stroke-width="1" stroke-linecap="square" stroke-linejoin="bevel" transform="matrix(1,0,0,1,0,0)"
font-family="Sans" font-size="10" font-weight="400" font-style="normal" 
>
</g>

<g fill="#070707" fill-opacity="1" stroke="#070707" stroke-opacity="1" stroke-width="1" stroke-linecap="square" stroke-linejoin="bevel" transform="matrix(1,0,0,1,0,0)"
font-family="Sans" font-size="10" font-weight="400" font-style="normal" 
>
<path fill-rule="evenodd" d="M7.04,7.04"/>
</g>

<g fill="none" stroke="#070707" stroke-opacity="1" stroke-width="1" stroke-linecap="square" stroke-linejoin="bevel" transform="matrix(1,0,0,1,0,0)"
font-family="Sans" font-size="10" font-weight="400" font-style="normal" 
>
<path fill-rule="evenodd" d="M7.04,7.04"/>
</g>
</g>
</svg>
