<?xml version="1.0" encoding="UTF-8" standalone="no"?>
<svg width="4.93889mm" height="4.93889mm"
 viewBox="0 0 14 14"
 xmlns="http://www.w3.org/2000/svg" xmlns:xlink="http://www.w3.org/1999/xlink"  version="1.2" baseProfile="tiny">
<title>BRIDGE01</title>
<desc>symbol for opening bridge</desc>
<defs>
</defs>
<g fill="none" stroke="black" vector-effect="non-scaling-stroke" stroke-width="1" fill-rule="evenodd" stroke-linecap="square" stroke-linejoin="bevel" >

<g fill="none" stroke="#c64dbb" stroke-opacity="1" stroke-width="1" stroke-linecap="square" stroke-linejoin="bevel" transform="matrix(1,0,0,1,0,0)"
font-family="Sans" font-size="10" font-weight="400" font-style="normal" 
>
<path fill-rule="evenodd" d="M12.408,6.896 C12.408,10.2097 9.72171,12.896 6.408,12.896 C3.09429,12.896 0.408,10.2097 0.408,6.896 C0.408,3.58229 3.09429,0.896 6.408,0.896 C9.72171,0.896 12.408,3.58229 12.408,6.896 "/>
<path fill-rule="evenodd" d="M9.408,6.896 C9.408,8.55285 8.06485,9.896 6.408,9.896 C4.75115,9.896 3.408,8.55285 3.408,6.896 C3.408,5.23915 4.75115,3.896 6.408,3.896 C8.06485,3.896 9.408,5.23915 9.408,6.896 "/>
</g>
</g>
</svg>
