<?xml version="1.0" encoding="UTF-8" standalone="no"?>
<svg width="4.23333mm" height="5.64444mm"
 viewBox="0 0 12 16"
 xmlns="http://www.w3.org/2000/svg" xmlns:xlink="http://www.w3.org/1999/xlink"  version="1.2" baseProfile="tiny">
<title>BUIREL15</title>
<desc>conspicuous mosque or minaret</desc>
<defs>
</defs>
<g fill="none" stroke="black" vector-effect="non-scaling-stroke" stroke-width="1" fill-rule="evenodd" stroke-linecap="square" stroke-linejoin="bevel" >

<g fill="none" stroke="#070707" stroke-opacity="1" stroke-width="1" stroke-linecap="square" stroke-linejoin="bevel" transform="matrix(1,0,0,1,0,0)"
font-family="Sans" font-size="10" font-weight="400" font-style="normal" 
>
<path fill-rule="evenodd" d="M-0.312,0.064 L0.688,1.064 L1.688,2.064 L2.688,3.064 L3.688,3.064 L5.688,3.064 L6.688,3.064 L7.688,3.064 L8.688,3.064 L9.688,2.064 L10.688,1.064 L10.688,0.064 L11.688,0.064"/>
<path fill-rule="evenodd" d="M8.688,12.064 C8.688,13.7209 7.34485,15.064 5.688,15.064 C4.03115,15.064 2.688,13.7209 2.688,12.064 C2.688,10.4071 4.03115,9.064 5.688,9.064 C7.34485,9.064 8.688,10.4071 8.688,12.064 "/>
<path fill-rule="evenodd" d="M5.688,8.064 L5.688,3.064"/>
</g>

<g fill="#070707" fill-opacity="1" stroke="#070707" stroke-opacity="1" stroke-width="1" stroke-linecap="square" stroke-linejoin="bevel" transform="matrix(1,0,0,1,0,0)"
font-family="Sans" font-size="10" font-weight="400" font-style="normal" 
>
<path fill-rule="evenodd" d=""/>
</g>

<g fill="none" stroke="#070707" stroke-opacity="1" stroke-width="1" stroke-linecap="square" stroke-linejoin="bevel" transform="matrix(1,0,0,1,0,0)"
font-family="Sans" font-size="10" font-weight="400" font-style="normal" 
>
</g>

<g fill="#070707" fill-opacity="1" stroke="#070707" stroke-opacity="1" stroke-width="1" stroke-linecap="square" stroke-linejoin="bevel" transform="matrix(1,0,0,1,0,0)"
font-family="Sans" font-size="10" font-weight="400" font-style="normal" 
>
<path fill-rule="evenodd" d="M5.688,12.064"/>
</g>

<g fill="none" stroke="#070707" stroke-opacity="1" stroke-width="1" stroke-linecap="square" stroke-linejoin="bevel" transform="matrix(1,0,0,1,0,0)"
font-family="Sans" font-size="10" font-weight="400" font-style="normal" 
>
<path fill-rule="evenodd" d="M5.688,12.064"/>
</g>
</g>
</svg>
