<?xml version="1.0" encoding="UTF-8" standalone="no"?>
<svg width="4.93889mm" height="4.93889mm"
 viewBox="0 0 14 14"
 xmlns="http://www.w3.org/2000/svg" xmlns:xlink="http://www.w3.org/1999/xlink"  version="1.2" baseProfile="tiny">
<title>BUIREL01</title>
<desc>non-conspicuous religious building, Christian</desc>
<defs>
</defs>
<g fill="none" stroke="black" vector-effect="non-scaling-stroke" stroke-width="1" fill-rule="evenodd" stroke-linecap="square" stroke-linejoin="bevel" >

<g fill="none" stroke="#937427" stroke-opacity="1" stroke-width="1" stroke-linecap="square" stroke-linejoin="bevel" transform="matrix(1,0,0,1,0,0)"
font-family="Sans" font-size="10" font-weight="400" font-style="normal" 
>
</g>

<g fill="#937427" fill-opacity="1" stroke="#937427" stroke-opacity="1" stroke-width="1" stroke-linecap="square" stroke-linejoin="bevel" transform="matrix(1,0,0,1,0,0)"
font-family="Sans" font-size="10" font-weight="400" font-style="normal" 
>
<path fill-rule="evenodd" d="M3.04,0.04 L10.04,0.04 L7.04,3.04 L3.04,0.04"/>
</g>

<g fill="none" stroke="#937427" stroke-opacity="1" stroke-width="1" stroke-linecap="square" stroke-linejoin="bevel" transform="matrix(1,0,0,1,0,0)"
font-family="Sans" font-size="10" font-weight="400" font-style="normal" 
>
<path fill-rule="evenodd" d="M3.04,0.04"/>
</g>

<g fill="#937427" fill-opacity="1" stroke="#937427" stroke-opacity="1" stroke-width="1" stroke-linecap="square" stroke-linejoin="bevel" transform="matrix(1,0,0,1,0,0)"
font-family="Sans" font-size="10" font-weight="400" font-style="normal" 
>
<path fill-rule="evenodd" d="M13.04,3.04 L13.04,10.04 L10.04,7.04 L13.04,3.04"/>
</g>

<g fill="none" stroke="#937427" stroke-opacity="1" stroke-width="1" stroke-linecap="square" stroke-linejoin="bevel" transform="matrix(1,0,0,1,0,0)"
font-family="Sans" font-size="10" font-weight="400" font-style="normal" 
>
<path fill-rule="evenodd" d="M13.04,3.04"/>
</g>

<g fill="#937427" fill-opacity="1" stroke="#937427" stroke-opacity="1" stroke-width="1" stroke-linecap="square" stroke-linejoin="bevel" transform="matrix(1,0,0,1,0,0)"
font-family="Sans" font-size="10" font-weight="400" font-style="normal" 
>
<path fill-rule="evenodd" d="M3.04,13.04 L10.04,13.04 L7.04,10.04 L3.04,13.04"/>
</g>

<g fill="none" stroke="#937427" stroke-opacity="1" stroke-width="1" stroke-linecap="square" stroke-linejoin="bevel" transform="matrix(1,0,0,1,0,0)"
font-family="Sans" font-size="10" font-weight="400" font-style="normal" 
>
<path fill-rule="evenodd" d="M3.04,13.04"/>
</g>

<g fill="#937427" fill-opacity="1" stroke="#937427" stroke-opacity="1" stroke-width="1" stroke-linecap="square" stroke-linejoin="bevel" transform="matrix(1,0,0,1,0,0)"
font-family="Sans" font-size="10" font-weight="400" font-style="normal" 
>
<path fill-rule="evenodd" d="M0.04,3.04 L0.04,10.04 L3.04,7.04 L0.04,3.04"/>
</g>

<g fill="none" stroke="#937427" stroke-opacity="1" stroke-width="1" stroke-linecap="square" stroke-linejoin="bevel" transform="matrix(1,0,0,1,0,0)"
font-family="Sans" font-size="10" font-weight="400" font-style="normal" 
>
<path fill-rule="evenodd" d="M0.04,3.04"/>
<path fill-rule="evenodd" d="M3.04,7.04 L10.04,7.04"/>
<path fill-rule="evenodd" d="M7.04,3.04 L7.04,10.04"/>
<path fill-rule="evenodd" d="M3.04,0.04 L10.04,0.04 L7.04,3.04 L3.04,0.04"/>
<path fill-rule="evenodd" d="M13.04,3.04 L13.04,10.04 L10.04,7.04 L13.04,3.04"/>
<path fill-rule="evenodd" d="M10.04,13.04 L3.04,13.04 L7.04,10.04 L10.04,13.04"/>
<path fill-rule="evenodd" d="M0.04,3.04 L0.04,10.04 L3.04,7.04 L0.04,3.04"/>
</g>
</g>
</svg>
