<?xml version="1.0" encoding="UTF-8" standalone="no"?>
<svg width="5.64444mm" height="5.64444mm"
 viewBox="0 0 16 16"
 xmlns="http://www.w3.org/2000/svg" xmlns:xlink="http://www.w3.org/1999/xlink"  version="1.2" baseProfile="tiny">
<title>CAIRNS01</title>
<desc>cairn</desc>
<defs>
</defs>
<g fill="none" stroke="black" vector-effect="non-scaling-stroke" stroke-width="1" fill-rule="evenodd" stroke-linecap="square" stroke-linejoin="bevel" >

<path fill-rule="evenodd" d="M8.32,-0.28"/>
<g fill="#000000" fill-opacity="1" stroke="#937427" stroke-opacity="1" vector-effect="non-scaling-stroke" stroke-width="1" stroke-linecap="square" stroke-linejoin="bevel" transform="matrix(1,0,0,1,0,0)"
font-family="Sans" font-size="10" font-weight="400" font-style="normal" 
>
<path fill-rule="evenodd" d=""/>
</g>

<g fill="none" stroke="#000000" stroke-opacity="1" vector-effect="non-scaling-stroke" stroke-width="1" stroke-linecap="square" stroke-linejoin="bevel" transform="matrix(1,0,0,1,0,0)"
font-family="Sans" font-size="10" font-weight="400" font-style="normal" 
>
<path fill-rule="evenodd" d="M8.32,-0.28 L11.32,4.72 L11.32,3.72 L10.32,2.72 L10.32,1.72 L9.32,0.72 L8.32,-0.28 M5.32,6.72"/>
</g>

<g fill="#000000" fill-opacity="1" stroke="#937427" stroke-opacity="1" vector-effect="non-scaling-stroke" stroke-width="1" stroke-linecap="square" stroke-linejoin="bevel" transform="matrix(1,0,0,1,0,0)"
font-family="Sans" font-size="10" font-weight="400" font-style="normal" 
>
<path fill-rule="evenodd" d=""/>
</g>

<g fill="none" stroke="#000000" stroke-opacity="1" vector-effect="non-scaling-stroke" stroke-width="1" stroke-linecap="square" stroke-linejoin="bevel" transform="matrix(1,0,0,1,0,0)"
font-family="Sans" font-size="10" font-weight="400" font-style="normal" 
>
<path fill-rule="evenodd" d="M5.32,6.72 L8.32,9.72 L8.32,10.72 L7.32,11.72 L7.32,12.72 L6.32,12.72 L5.32,13.72 L6.32,12.72 L6.32,11.72 L7.32,10.72 L7.32,9.72 L6.32,8.72 L6.32,7.72 L5.32,6.72"/>
<path fill-rule="evenodd" d="M12.32,6.72"/>
</g>

<g fill="#000000" fill-opacity="1" stroke="#937427" stroke-opacity="1" vector-effect="non-scaling-stroke" stroke-width="1" stroke-linecap="square" stroke-linejoin="bevel" transform="matrix(1,0,0,1,0,0)"
font-family="Sans" font-size="10" font-weight="400" font-style="normal" 
>
<path fill-rule="evenodd" d=""/>
</g>

<g fill="none" stroke="#000000" stroke-opacity="1" vector-effect="non-scaling-stroke" stroke-width="1" stroke-linecap="square" stroke-linejoin="bevel" transform="matrix(1,0,0,1,0,0)"
font-family="Sans" font-size="10" font-weight="400" font-style="normal" 
>
</g>

<g fill="none" stroke="#937427" stroke-opacity="1" stroke-width="2" stroke-linecap="square" stroke-linejoin="bevel" transform="matrix(1,0,0,1,0,0)"
font-family="Sans" font-size="10" font-weight="400" font-style="normal" 
>
<path fill-rule="evenodd" d="M12.32,6.72 L14.32,10.72 L14.32,8.72 L13.32,8.72 L13.32,7.72 L12.32,7.72 L12.32,6.72 M9.32,14.72 C9.32,15.2723 8.87228,15.72 8.32,15.72 C7.76772,15.72 7.32,15.2723 7.32,14.72 C7.32,14.1677 7.76772,13.72 8.32,13.72 C8.87228,13.72 9.32,14.1677 9.32,14.72 M7.32,10.72 C7.32,12.3769 5.97685,13.72 4.32,13.72 C2.66315,13.72 1.32,12.3769 1.32,10.72 C1.32,9.06315 2.66315,7.72 4.32,7.72 C5.97685,7.72 7.32,9.06315 7.32,10.72 M11.32,3.72 C11.32,5.37685 9.97685,6.72 8.32,6.72 C6.66315,6.72 5.32,5.37685 5.32,3.72 C5.32,2.06315 6.66315,0.72 8.32,0.72 C9.97685,0.72 11.32,2.06315 11.32,3.72 M11.32,10.72"/>
<path fill-rule="evenodd" d="M-12.68,-9.28 C-12.68,-7.62315 -14.0231,-6.28 -15.68,-6.28 C-17.3369,-6.28 -18.68,-7.62315 -18.68,-9.28 C-18.68,-10.9369 -17.3369,-12.28 -15.68,-12.28 C-14.0231,-12.28 -12.68,-10.9369 -12.68,-9.28 M0.32,14.72 L6.32,14.72 M9.32,14.72 L14.32,14.72"/>
</g>
</g>
</svg>
