<?xml version="1.0" encoding="UTF-8" standalone="no"?>
<svg width="11.6417mm" height="10.5833mm"
 viewBox="0 0 33 30"
 xmlns="http://www.w3.org/2000/svg" xmlns:xlink="http://www.w3.org/1999/xlink"  version="1.2" baseProfile="tiny">
<title>CURDEF01</title>
<desc>current or tidal stream whose direction is not known</desc>
<defs>
</defs>
<g fill="none" stroke="black" vector-effect="non-scaling-stroke" stroke-width="1" fill-rule="evenodd" stroke-linecap="square" stroke-linejoin="bevel" >

<g fill="none" stroke="#88988b" stroke-opacity="1" stroke-width="1" stroke-linecap="square" stroke-linejoin="bevel" transform="matrix(1,0,0,1,0,0)"
font-family="Sans" font-size="10" font-weight="400" font-style="normal" 
>
<path fill-rule="evenodd" d="M12.136,29.056 L16.136,22.056 L19.136,29.056"/>
<path fill-rule="evenodd" d="M12.136,23.056 L16.136,16.056 L19.136,23.056"/>
<path fill-rule="evenodd" d="M16.136,0.056 L16.136,29.056"/>
<path fill-rule="evenodd" d="M12.136,8.056 L16.136,0.056 L19.136,8.056"/>
<path fill-rule="evenodd" d="M0.136,11.056 L0.136,10.056 L1.136,10.056 L1.136,9.056 L2.136,8.056 L3.136,8.056 L4.136,9.056 L5.136,9.056 L6.136,10.056 L7.136,10.056 L7.136,11.056 L7.136,12.056 L7.136,13.056 L6.136,13.056 L6.136,14.056 L5.136,15.056 L4.136,16.056 L3.136,17.056 L3.136,18.056 L3.136,19.056 L3.136,20.056"/>
</g>

<g fill="none" stroke="#88988b" stroke-opacity="1" stroke-width="2" stroke-linecap="square" stroke-linejoin="bevel" transform="matrix(1,0,0,1,0,0)"
font-family="Sans" font-size="10" font-weight="400" font-style="normal" 
>
<path fill-rule="evenodd" d="M3.136,22.056 L4.136,22.056"/>
</g>

<g fill="none" stroke="#88988b" stroke-opacity="1" stroke-width="1" stroke-linecap="square" stroke-linejoin="bevel" transform="matrix(1,0,0,1,0,0)"
font-family="Sans" font-size="10" font-weight="400" font-style="normal" 
>
<path fill-rule="evenodd" d="M25.136,11.056 L26.136,10.056 L26.136,9.056 L27.136,9.056 L27.136,8.056 L28.136,8.056 L29.136,8.056 L30.136,8.056 L31.136,9.056 L31.136,10.056 L32.136,10.056 L32.136,11.056 L32.136,12.056 L31.136,13.056 L31.136,14.056 L30.136,15.056 L29.136,16.056 L29.136,17.056 L29.136,18.056 L29.136,19.056"/>
</g>

<g fill="none" stroke="#88988b" stroke-opacity="1" stroke-width="2" stroke-linecap="square" stroke-linejoin="bevel" transform="matrix(1,0,0,1,0,0)"
font-family="Sans" font-size="10" font-weight="400" font-style="normal" 
>
<path fill-rule="evenodd" d="M28.136,22.056 L30.136,22.056"/>
</g>
</g>
</svg>
