<?xml version="1.0" encoding="UTF-8" standalone="no"?>
<svg width="5.99722mm" height="7.40833mm"
 viewBox="0 0 17 21"
 xmlns="http://www.w3.org/2000/svg" xmlns:xlink="http://www.w3.org/1999/xlink"  version="1.2" baseProfile="tiny">
<title>DAYTRI05</title>
<desc>triangular daymark, point down, simplified</desc>
<defs>
</defs>
<g fill="none" stroke="black" vector-effect="non-scaling-stroke" stroke-width="1" fill-rule="evenodd" stroke-linecap="square" stroke-linejoin="bevel" >

<g fill="none" stroke="#c64dbb" stroke-opacity="1" stroke-width="1" stroke-linecap="square" stroke-linejoin="bevel" transform="matrix(1,0,0,1,0,0)"
font-family="Sans" font-size="10" font-weight="400" font-style="normal" 
>
<path fill-rule="evenodd" d="M0.64,0.472 L16.64,0.472 L8.64,13.472 L0.64,0.472"/>
</g>

<g fill="#c64dbb" fill-opacity="1" stroke="#c64dbb" stroke-opacity="1" stroke-width="1" stroke-linecap="square" stroke-linejoin="bevel" transform="matrix(1,0,0,1,0,0)"
font-family="Sans" font-size="10" font-weight="400" font-style="normal" 
>
<path fill-rule="evenodd" d="M9.64,12.472 C9.64,13.0243 9.19228,13.472 8.64,13.472 C8.08772,13.472 7.64,13.0243 7.64,12.472 C7.64,11.9197 8.08772,11.472 8.64,11.472 C9.19228,11.472 9.64,11.9197 9.64,12.472 "/>
</g>

<g fill="none" stroke="#c64dbb" stroke-opacity="1" stroke-width="1" stroke-linecap="square" stroke-linejoin="bevel" transform="matrix(1,0,0,1,0,0)"
font-family="Sans" font-size="10" font-weight="400" font-style="normal" 
>
</g>

<g fill="#c64dbb" fill-opacity="1" stroke="#c64dbb" stroke-opacity="1" stroke-width="1" stroke-linecap="square" stroke-linejoin="bevel" transform="matrix(1,0,0,1,0,0)"
font-family="Sans" font-size="10" font-weight="400" font-style="normal" 
>
<path fill-rule="evenodd" d="M8.64,12.472"/>
</g>

<g fill="none" stroke="#c64dbb" stroke-opacity="1" stroke-width="1" stroke-linecap="square" stroke-linejoin="bevel" transform="matrix(1,0,0,1,0,0)"
font-family="Sans" font-size="10" font-weight="400" font-style="normal" 
>
<path fill-rule="evenodd" d="M8.64,12.472"/>
<path fill-rule="evenodd" d="M9.64,12.472 C9.64,13.0243 9.19228,13.472 8.64,13.472 C8.08772,13.472 7.64,13.0243 7.64,12.472 C7.64,11.9197 8.08772,11.472 8.64,11.472 C9.19228,11.472 9.64,11.9197 9.64,12.472 "/>
<path fill-rule="evenodd" d="M8.64,13.472 L8.64,19.472"/>
</g>
</g>
</svg>
