<?xml version="1.0" encoding="UTF-8" standalone="no"?>
<svg width="5.99722mm" height="7.05556mm"
 viewBox="0 0 17 20"
 xmlns="http://www.w3.org/2000/svg" xmlns:xlink="http://www.w3.org/1999/xlink"  version="1.2" baseProfile="tiny">
<title>DAYTRI01</title>
<desc>triangular daymark, point up, simplified</desc>
<defs>
</defs>
<g fill="none" stroke="black" vector-effect="non-scaling-stroke" stroke-width="1" fill-rule="evenodd" stroke-linecap="square" stroke-linejoin="bevel" >

<g fill="none" stroke="#c64dbb" stroke-opacity="1" stroke-width="1" stroke-linecap="square" stroke-linejoin="bevel" transform="matrix(1,0,0,1,0,0)"
font-family="Sans" font-size="10" font-weight="400" font-style="normal" 
>
<path fill-rule="evenodd" d="M0.096,13.344 L16.096,13.344 L8.096,0.344 L0.096,13.344"/>
<path fill-rule="evenodd" d="M8.096,13.344 L8.096,19.344"/>
</g>

<g fill="#c64dbb" fill-opacity="1" stroke="#c64dbb" stroke-opacity="1" stroke-width="1" stroke-linecap="square" stroke-linejoin="bevel" transform="matrix(1,0,0,1,0,0)"
font-family="Sans" font-size="10" font-weight="400" font-style="normal" 
>
<path fill-rule="evenodd" d="M9.096,13.344 C9.096,13.8963 8.64828,14.344 8.096,14.344 C7.54372,14.344 7.096,13.8963 7.096,13.344 C7.096,12.7917 7.54372,12.344 8.096,12.344 C8.64828,12.344 9.096,12.7917 9.096,13.344 "/>
</g>

<g fill="none" stroke="#c64dbb" stroke-opacity="1" stroke-width="1" stroke-linecap="square" stroke-linejoin="bevel" transform="matrix(1,0,0,1,0,0)"
font-family="Sans" font-size="10" font-weight="400" font-style="normal" 
>
</g>

<g fill="#c64dbb" fill-opacity="1" stroke="#c64dbb" stroke-opacity="1" stroke-width="1" stroke-linecap="square" stroke-linejoin="bevel" transform="matrix(1,0,0,1,0,0)"
font-family="Sans" font-size="10" font-weight="400" font-style="normal" 
>
<path fill-rule="evenodd" d="M8.096,13.344"/>
</g>

<g fill="none" stroke="#c64dbb" stroke-opacity="1" stroke-width="1" stroke-linecap="square" stroke-linejoin="bevel" transform="matrix(1,0,0,1,0,0)"
font-family="Sans" font-size="10" font-weight="400" font-style="normal" 
>
<path fill-rule="evenodd" d="M8.096,13.344"/>
<path fill-rule="evenodd" d="M9.096,13.344 C9.096,13.8963 8.64828,14.344 8.096,14.344 C7.54372,14.344 7.096,13.8963 7.096,13.344 C7.096,12.7917 7.54372,12.344 8.096,12.344 C8.64828,12.344 9.096,12.7917 9.096,13.344 "/>
</g>
</g>
</svg>
