<?xml version="1.0" encoding="UTF-8" standalone="no"?>
<svg width="15.1694mm" height="9.87778mm"
 viewBox="0 0 43 28"
 xmlns="http://www.w3.org/2000/svg" xmlns:xlink="http://www.w3.org/1999/xlink"  version="1.2" baseProfile="tiny">
<title>DIRBOY01</title>
<desc>direction of buoyage</desc>
<defs>
</defs>
<g fill="none" stroke="black" vector-effect="non-scaling-stroke" stroke-width="1" fill-rule="evenodd" stroke-linecap="square" stroke-linejoin="bevel" >

<g fill="none" stroke="#c64dbb" stroke-opacity="1" stroke-width="1" stroke-linecap="square" stroke-linejoin="bevel" transform="matrix(1,0,0,1,0,0)"
font-family="Sans" font-size="10" font-weight="400" font-style="normal" 
>
<path fill-rule="evenodd" d="M11.544,20.28 L1.544,20.28 L21.544,1.28 L40.544,20.28 L30.544,20.28 L30.544,26.28 L11.544,26.28 L11.544,20.28"/>
</g>

<g fill="none" stroke="#c64dbb" stroke-opacity="1" stroke-width="2" stroke-linecap="square" stroke-linejoin="bevel" transform="matrix(1,0,0,1,0,0)"
font-family="Sans" font-size="10" font-weight="400" font-style="normal" 
>
<path fill-rule="evenodd" d="M8.544,5.28 C8.544,7.48914 6.75314,9.28 4.544,9.28 C2.33486,9.28 0.544,7.48914 0.544,5.28 C0.544,3.07086 2.33486,1.28 4.544,1.28 C6.75314,1.28 8.544,3.07086 8.544,5.28 "/>
<path fill-rule="evenodd" d="M41.544,5.28 C41.544,7.48914 39.7531,9.28 37.544,9.28 C35.3349,9.28 33.544,7.48914 33.544,5.28 C33.544,3.07086 35.3349,1.28 37.544,1.28 C39.7531,1.28 41.544,3.07086 41.544,5.28 "/>
</g>
</g>
</svg>
