<?xml version="1.0" encoding="UTF-8" standalone="no"?>
<svg width="7.40833mm" height="17.2861mm"
 viewBox="0 0 21 49"
 xmlns="http://www.w3.org/2000/svg" xmlns:xlink="http://www.w3.org/1999/xlink"  version="1.2" baseProfile="tiny">
<title>DWRUTE51</title>
<desc>reciprocal traffic directions in a two-way part of a deep-water route</desc>
<defs>
</defs>
<g fill="none" stroke="black" vector-effect="non-scaling-stroke" stroke-width="1" fill-rule="evenodd" stroke-linecap="square" stroke-linejoin="bevel" >

<g fill="#c64dbb" fill-opacity="0.250004" stroke="#c64dbb" stroke-opacity="1" vector-effect="non-scaling-stroke" stroke-width="1" stroke-linecap="square" stroke-linejoin="bevel" transform="matrix(1,0,0,1,0,0)"
font-family="Sans" font-size="10" font-weight="400" font-style="normal" 
>
<path fill-rule="evenodd" d="M5.432,14.64 L0.432,14.64 L9.432,0.64 L19.432,14.64 L14.432,14.64 L14.432,33.64 L20.432,33.64 L10.432,47.64 L0.432,33.64 L5.432,33.64 L5.432,14.64"/>
</g>

<g fill="none" stroke="#000000" stroke-opacity="1" vector-effect="non-scaling-stroke" stroke-width="1" stroke-linecap="square" stroke-linejoin="bevel" transform="matrix(1,0,0,1,0,0)"
font-family="Sans" font-size="10" font-weight="400" font-style="normal" 
>
<path fill-rule="evenodd" d="M5.432,14.64"/>
</g>

<g fill="none" stroke="#c64dbb" stroke-opacity="1" stroke-width="1" stroke-linecap="square" stroke-linejoin="bevel" transform="matrix(1,0,0,1,0,0)"
font-family="Sans" font-size="10" font-weight="400" font-style="normal" 
>
<path fill-rule="evenodd" d="M5.432,14.64 L0.432,14.64 L9.432,0.64 L19.432,14.64 L14.432,14.64 L14.432,33.64 L20.432,33.64 L10.432,47.64 L0.432,33.64 L5.432,33.64 L5.432,14.64"/>
</g>
</g>
</svg>
