<?xml version="1.0" encoding="UTF-8" standalone="no"?>
<svg width="14.4639mm" height="11.6417mm"
 viewBox="0 0 41 33"
 xmlns="http://www.w3.org/2000/svg" xmlns:xlink="http://www.w3.org/1999/xlink"  version="1.2" baseProfile="tiny">
<title>ENTRES71</title>
<desc>area where entry is prohibited or restricted or "to be avoided", with other information</desc>
<defs>
</defs>
<g fill="none" stroke="black" vector-effect="non-scaling-stroke" stroke-width="1" fill-rule="evenodd" stroke-linecap="square" stroke-linejoin="bevel" >

<g fill="none" stroke="#d4b1dd" stroke-opacity="1" stroke-width="3" stroke-linecap="square" stroke-linejoin="bevel" transform="matrix(1,0,0,1,0,0)"
font-family="Sans" font-size="10" font-weight="400" font-style="normal" 
>
<path fill-rule="evenodd" d="M31.52,16.568 L16.52,16.568"/>
</g>

<g fill="none" stroke="#d4b1dd" stroke-opacity="1" stroke-width="2" stroke-linecap="square" stroke-linejoin="bevel" transform="matrix(1,0,0,1,0,0)"
font-family="Sans" font-size="10" font-weight="400" font-style="normal" 
>
<path fill-rule="evenodd" d="M38.52,15.568 C38.52,23.8523 31.8043,30.568 23.52,30.568 C15.2357,30.568 8.52,23.8523 8.52,15.568 C8.52,7.28373 15.2357,0.568 23.52,0.568 C31.8043,0.568 38.52,7.28373 38.52,15.568 "/>
</g>

<g fill="none" stroke="#c64dbb" stroke-opacity="1" stroke-width="1" stroke-linecap="square" stroke-linejoin="bevel" transform="matrix(1,0,0,1,0,0)"
font-family="Sans" font-size="10" font-weight="400" font-style="normal" 
>
<path fill-rule="evenodd" d="M3.52,31.568 L3.52,23.568 L0.52,23.568"/>
<path fill-rule="evenodd" d="M0.52,31.568 L6.52,31.568"/>
<path fill-rule="evenodd" d="M1.52,20.568 L1.52,21.568"/>
</g>
</g>
</svg>
