<?xml version="1.0" encoding="UTF-8" standalone="no"?>
<svg width="3.88056mm" height="7.40833mm"
 viewBox="0 0 11 21"
 xmlns="http://www.w3.org/2000/svg" xmlns:xlink="http://www.w3.org/1999/xlink"  version="1.2" baseProfile="tiny">
<title>FLASTK01</title>
<desc>flare stack</desc>
<defs>
</defs>
<g fill="none" stroke="black" vector-effect="non-scaling-stroke" stroke-width="1" fill-rule="evenodd" stroke-linecap="square" stroke-linejoin="bevel" >

<g fill="#937427" fill-opacity="1" stroke="#937427" stroke-opacity="1" vector-effect="non-scaling-stroke" stroke-width="1" stroke-linecap="square" stroke-linejoin="bevel" transform="matrix(1,0,0,1,0,0)"
font-family="Sans" font-size="10" font-weight="400" font-style="normal" 
>
<path fill-rule="evenodd" d="M3.44,18.464 L3.44,7.464 L6.44,7.464 L6.44,18.464 L6.44,16.464 L5.44,16.464 L3.44,16.464 L3.44,18.464"/>
</g>

<g fill="none" stroke="#000000" stroke-opacity="1" vector-effect="non-scaling-stroke" stroke-width="1" stroke-linecap="square" stroke-linejoin="bevel" transform="matrix(1,0,0,1,0,0)"
font-family="Sans" font-size="10" font-weight="400" font-style="normal" 
>
</g>

<g fill="none" stroke="#937427" stroke-opacity="1" stroke-width="2" stroke-linecap="square" stroke-linejoin="bevel" transform="matrix(1,0,0,1,0,0)"
font-family="Sans" font-size="10" font-weight="400" font-style="normal" 
>
<path fill-rule="evenodd" d="M5.44,18.464"/>
<path fill-rule="evenodd" d="M-41.56,-29.536 C-41.56,-28.9837 -42.0077,-28.536 -42.56,-28.536 C-43.1123,-28.536 -43.56,-28.9837 -43.56,-29.536 C-43.56,-30.0883 -43.1123,-30.536 -42.56,-30.536 C-42.0077,-30.536 -41.56,-30.0883 -41.56,-29.536 M6.44,18.464 L9.44,18.464 M3.44,18.464 L0.44,18.464 M6.44,0.464 L5.44,0.464 L4.44,1.464 L3.44,2.464 L3.44,3.464 L3.44,4.464"/>
<path fill-rule="evenodd" d="M3.44,4.464 L3.44,5.464 L4.44,5.464 L5.44,5.464 L6.44,4.464 L6.44,3.464 L5.44,3.464 L5.44,2.464 L5.44,1.464 L6.44,0.464"/>
<path fill-rule="evenodd" d="M6.44,0.464"/>
</g>
</g>
</svg>
