<?xml version="1.0" encoding="UTF-8" standalone="no"?>
<svg width="11.6417mm" height="7.40833mm"
 viewBox="0 0 33 21"
 xmlns="http://www.w3.org/2000/svg" xmlns:xlink="http://www.w3.org/1999/xlink"  version="1.2" baseProfile="tiny">
<title>FSHHAV01</title>
<desc>fish haven</desc>
<defs>
</defs>
<g fill="none" stroke="black" vector-effect="non-scaling-stroke" stroke-width="1" fill-rule="evenodd" stroke-linecap="square" stroke-linejoin="bevel" >

<g fill="none" stroke="#88988b" stroke-opacity="1" stroke-width="2" stroke-linecap="square" stroke-linejoin="bevel" transform="matrix(1,0,0,1,0,0)"
font-family="Sans" font-size="10" font-weight="400" font-style="normal" 
>
<path fill-rule="evenodd" d="M4.64,13.56 L8.64,10.56 L10.64,7.56 L12.64,6.56 L15.64,5.56 L17.64,4.56 L19.64,4.56 L21.64,5.56 L24.64,6.56 L26.64,6.56 L28.64,8.56"/>
<path fill-rule="evenodd" d="M28.64,8.56 L29.64,10.56 L28.64,11.56 L26.64,12.56 L24.64,13.56 L22.64,14.56 L20.64,14.56 L17.64,14.56 L15.64,14.56 L12.64,13.56 L10.64,12.56 L9.64,10.56"/>
<path fill-rule="evenodd" d="M8.64,9.56 L4.64,5.56 M24.64,6.56 L24.64,7.56 L23.64,8.56 L23.64,9.56 L23.64,10.56 L23.64,11.56 L24.64,13.56 M9.64,10.56 L8.64,9.56"/>
</g>

<g fill="#88988b" fill-opacity="1" stroke="none" transform="matrix(1,0,0,1,0,0)"
font-family="Sans" font-size="10" font-weight="400" font-style="normal" 
>
<path fill-rule="evenodd" d="M15.64,-0.44 L17.64,-0.44 L17.64,1.56 L15.64,1.56 L15.64,-0.44"/>
</g>

<g fill="none" stroke="#88988b" stroke-opacity="1" stroke-width="2" stroke-linecap="square" stroke-linejoin="bevel" transform="matrix(1,0,0,1,0,0)"
font-family="Sans" font-size="10" font-weight="400" font-style="normal" 
>
</g>

<g fill="#88988b" fill-opacity="1" stroke="none" transform="matrix(1,0,0,1,0,0)"
font-family="Sans" font-size="10" font-weight="400" font-style="normal" 
>
<path fill-rule="evenodd" d="M15.64,18.56 L17.64,18.56 L17.64,20.56 L15.64,20.56 L15.64,18.56"/>
</g>

<g fill="none" stroke="#88988b" stroke-opacity="1" stroke-width="2" stroke-linecap="square" stroke-linejoin="bevel" transform="matrix(1,0,0,1,0,0)"
font-family="Sans" font-size="10" font-weight="400" font-style="normal" 
>
</g>

<g fill="#88988b" fill-opacity="1" stroke="none" transform="matrix(1,0,0,1,0,0)"
font-family="Sans" font-size="10" font-weight="400" font-style="normal" 
>
<path fill-rule="evenodd" d="M30.64,9.56 L32.64,9.56 L32.64,11.56 L30.64,11.56 L30.64,9.56"/>
</g>

<g fill="none" stroke="#88988b" stroke-opacity="1" stroke-width="2" stroke-linecap="square" stroke-linejoin="bevel" transform="matrix(1,0,0,1,0,0)"
font-family="Sans" font-size="10" font-weight="400" font-style="normal" 
>
</g>

<g fill="#88988b" fill-opacity="1" stroke="none" transform="matrix(1,0,0,1,0,0)"
font-family="Sans" font-size="10" font-weight="400" font-style="normal" 
>
<path fill-rule="evenodd" d="M-0.36,9.56 L1.64,9.56 L1.64,11.56 L-0.36,11.56 L-0.36,9.56"/>
</g>

<g fill="none" stroke="#88988b" stroke-opacity="1" stroke-width="2" stroke-linecap="square" stroke-linejoin="bevel" transform="matrix(1,0,0,1,0,0)"
font-family="Sans" font-size="10" font-weight="400" font-style="normal" 
>
</g>

<g fill="#88988b" fill-opacity="1" stroke="none" transform="matrix(1,0,0,1,0,0)"
font-family="Sans" font-size="10" font-weight="400" font-style="normal" 
>
<path fill-rule="evenodd" d="M5.64,1.56 L7.64,1.56 L7.64,3.56 L5.64,3.56 L5.64,1.56"/>
</g>

<g fill="none" stroke="#88988b" stroke-opacity="1" stroke-width="2" stroke-linecap="square" stroke-linejoin="bevel" transform="matrix(1,0,0,1,0,0)"
font-family="Sans" font-size="10" font-weight="400" font-style="normal" 
>
</g>

<g fill="#88988b" fill-opacity="1" stroke="none" transform="matrix(1,0,0,1,0,0)"
font-family="Sans" font-size="10" font-weight="400" font-style="normal" 
>
<path fill-rule="evenodd" d="M23.64,1.56 L25.64,1.56 L25.64,3.56 L23.64,3.56 L23.64,1.56"/>
</g>

<g fill="none" stroke="#88988b" stroke-opacity="1" stroke-width="2" stroke-linecap="square" stroke-linejoin="bevel" transform="matrix(1,0,0,1,0,0)"
font-family="Sans" font-size="10" font-weight="400" font-style="normal" 
>
</g>

<g fill="#88988b" fill-opacity="1" stroke="none" transform="matrix(1,0,0,1,0,0)"
font-family="Sans" font-size="10" font-weight="400" font-style="normal" 
>
<path fill-rule="evenodd" d="M23.64,17.56 L25.64,17.56 L25.64,19.56 L23.64,19.56 L23.64,17.56"/>
</g>

<g fill="none" stroke="#88988b" stroke-opacity="1" stroke-width="2" stroke-linecap="square" stroke-linejoin="bevel" transform="matrix(1,0,0,1,0,0)"
font-family="Sans" font-size="10" font-weight="400" font-style="normal" 
>
</g>

<g fill="#88988b" fill-opacity="1" stroke="none" transform="matrix(1,0,0,1,0,0)"
font-family="Sans" font-size="10" font-weight="400" font-style="normal" 
>
<path fill-rule="evenodd" d="M0.64,13.56 L2.64,13.56 L2.64,15.56 L0.64,15.56 L0.64,13.56"/>
</g>

<g fill="none" stroke="#88988b" stroke-opacity="1" stroke-width="2" stroke-linecap="square" stroke-linejoin="bevel" transform="matrix(1,0,0,1,0,0)"
font-family="Sans" font-size="10" font-weight="400" font-style="normal" 
>
</g>

<g fill="#88988b" fill-opacity="1" stroke="none" transform="matrix(1,0,0,1,0,0)"
font-family="Sans" font-size="10" font-weight="400" font-style="normal" 
>
<path fill-rule="evenodd" d="M0.64,3.56 L2.64,3.56 L2.64,5.56 L0.64,5.56 L0.64,3.56"/>
</g>

<g fill="none" stroke="#88988b" stroke-opacity="1" stroke-width="2" stroke-linecap="square" stroke-linejoin="bevel" transform="matrix(1,0,0,1,0,0)"
font-family="Sans" font-size="10" font-weight="400" font-style="normal" 
>
<path fill-rule="evenodd" d="M1.64,4.56"/>
</g>

<g fill="#88988b" fill-opacity="1" stroke="none" transform="matrix(1,0,0,1,0,0)"
font-family="Sans" font-size="10" font-weight="400" font-style="normal" 
>
<path fill-rule="evenodd" d="M28.64,3.56 L30.64,3.56 L30.64,5.56 L28.64,5.56 L28.64,3.56"/>
</g>

<g fill="none" stroke="#88988b" stroke-opacity="1" stroke-width="2" stroke-linecap="square" stroke-linejoin="bevel" transform="matrix(1,0,0,1,0,0)"
font-family="Sans" font-size="10" font-weight="400" font-style="normal" 
>
</g>

<g fill="#88988b" fill-opacity="1" stroke="none" transform="matrix(1,0,0,1,0,0)"
font-family="Sans" font-size="10" font-weight="400" font-style="normal" 
>
<path fill-rule="evenodd" d="M28.64,13.56 L30.64,13.56 L30.64,15.56 L28.64,15.56 L28.64,13.56"/>
</g>

<g fill="none" stroke="#88988b" stroke-opacity="1" stroke-width="2" stroke-linecap="square" stroke-linejoin="bevel" transform="matrix(1,0,0,1,0,0)"
font-family="Sans" font-size="10" font-weight="400" font-style="normal" 
>
</g>

<g fill="#88988b" fill-opacity="1" stroke="none" transform="matrix(1,0,0,1,0,0)"
font-family="Sans" font-size="10" font-weight="400" font-style="normal" 
>
<path fill-rule="evenodd" d="M3.64,2.56 L5.64,2.56 L5.64,4.56 L3.64,4.56 L3.64,2.56"/>
</g>

<g fill="none" stroke="#88988b" stroke-opacity="1" stroke-width="2" stroke-linecap="square" stroke-linejoin="bevel" transform="matrix(1,0,0,1,0,0)"
font-family="Sans" font-size="10" font-weight="400" font-style="normal" 
>
</g>

<g fill="#88988b" fill-opacity="1" stroke="none" transform="matrix(1,0,0,1,0,0)"
font-family="Sans" font-size="10" font-weight="400" font-style="normal" 
>
<path fill-rule="evenodd" d="M-0.36,5.56 L1.64,5.56 L1.64,7.56 L-0.36,7.56 L-0.36,5.56"/>
</g>

<g fill="none" stroke="#88988b" stroke-opacity="1" stroke-width="2" stroke-linecap="square" stroke-linejoin="bevel" transform="matrix(1,0,0,1,0,0)"
font-family="Sans" font-size="10" font-weight="400" font-style="normal" 
>
</g>

<g fill="#88988b" fill-opacity="1" stroke="none" transform="matrix(1,0,0,1,0,0)"
font-family="Sans" font-size="10" font-weight="400" font-style="normal" 
>
<path fill-rule="evenodd" d="M-0.36,12.56 L1.64,12.56 L1.64,14.56 L-0.36,14.56 L-0.36,12.56"/>
</g>

<g fill="none" stroke="#88988b" stroke-opacity="1" stroke-width="2" stroke-linecap="square" stroke-linejoin="bevel" transform="matrix(1,0,0,1,0,0)"
font-family="Sans" font-size="10" font-weight="400" font-style="normal" 
>
</g>

<g fill="#88988b" fill-opacity="1" stroke="none" transform="matrix(1,0,0,1,0,0)"
font-family="Sans" font-size="10" font-weight="400" font-style="normal" 
>
<path fill-rule="evenodd" d="M29.64,12.56 L31.64,12.56 L31.64,14.56 L29.64,14.56 L29.64,12.56"/>
</g>

<g fill="none" stroke="#88988b" stroke-opacity="1" stroke-width="2" stroke-linecap="square" stroke-linejoin="bevel" transform="matrix(1,0,0,1,0,0)"
font-family="Sans" font-size="10" font-weight="400" font-style="normal" 
>
</g>

<g fill="#88988b" fill-opacity="1" stroke="none" transform="matrix(1,0,0,1,0,0)"
font-family="Sans" font-size="10" font-weight="400" font-style="normal" 
>
<path fill-rule="evenodd" d="M29.64,5.56 L31.64,5.56 L31.64,7.56 L29.64,7.56 L29.64,5.56"/>
</g>

<g fill="none" stroke="#88988b" stroke-opacity="1" stroke-width="2" stroke-linecap="square" stroke-linejoin="bevel" transform="matrix(1,0,0,1,0,0)"
font-family="Sans" font-size="10" font-weight="400" font-style="normal" 
>
</g>

<g fill="#88988b" fill-opacity="1" stroke="none" transform="matrix(1,0,0,1,0,0)"
font-family="Sans" font-size="10" font-weight="400" font-style="normal" 
>
<path fill-rule="evenodd" d="M26.64,2.56 L28.64,2.56 L28.64,4.56 L26.64,4.56 L26.64,2.56"/>
</g>

<g fill="none" stroke="#88988b" stroke-opacity="1" stroke-width="2" stroke-linecap="square" stroke-linejoin="bevel" transform="matrix(1,0,0,1,0,0)"
font-family="Sans" font-size="10" font-weight="400" font-style="normal" 
>
<path fill-rule="evenodd" d="M27.64,16.56"/>
</g>

<g fill="#88988b" fill-opacity="1" stroke="none" transform="matrix(1,0,0,1,0,0)"
font-family="Sans" font-size="10" font-weight="400" font-style="normal" 
>
<path fill-rule="evenodd" d="M-8.36,-14.44 L-6.36,-14.44 L-6.36,-12.44 L-8.36,-12.44 L-8.36,-14.44"/>
</g>

<g fill="none" stroke="#88988b" stroke-opacity="1" stroke-width="2" stroke-linecap="square" stroke-linejoin="bevel" transform="matrix(1,0,0,1,0,0)"
font-family="Sans" font-size="10" font-weight="400" font-style="normal" 
>
</g>

<g fill="#88988b" fill-opacity="1" stroke="none" transform="matrix(1,0,0,1,0,0)"
font-family="Sans" font-size="10" font-weight="400" font-style="normal" 
>
<path fill-rule="evenodd" d="M2.64,15.56 L4.64,15.56 L4.64,17.56 L2.64,17.56 L2.64,15.56"/>
</g>

<g fill="none" stroke="#88988b" stroke-opacity="1" stroke-width="2" stroke-linecap="square" stroke-linejoin="bevel" transform="matrix(1,0,0,1,0,0)"
font-family="Sans" font-size="10" font-weight="400" font-style="normal" 
>
</g>

<g fill="#88988b" fill-opacity="1" stroke="none" transform="matrix(1,0,0,1,0,0)"
font-family="Sans" font-size="10" font-weight="400" font-style="normal" 
>
<path fill-rule="evenodd" d="M9.64,-0.44 L11.64,-0.44 L11.64,1.56 L9.64,1.56 L9.64,-0.44"/>
</g>

<g fill="none" stroke="#88988b" stroke-opacity="1" stroke-width="2" stroke-linecap="square" stroke-linejoin="bevel" transform="matrix(1,0,0,1,0,0)"
font-family="Sans" font-size="10" font-weight="400" font-style="normal" 
>
</g>

<g fill="#88988b" fill-opacity="1" stroke="none" transform="matrix(1,0,0,1,0,0)"
font-family="Sans" font-size="10" font-weight="400" font-style="normal" 
>
<path fill-rule="evenodd" d="M12.64,-0.44 L14.64,-0.44 L14.64,1.56 L12.64,1.56 L12.64,-0.44"/>
</g>

<g fill="none" stroke="#88988b" stroke-opacity="1" stroke-width="2" stroke-linecap="square" stroke-linejoin="bevel" transform="matrix(1,0,0,1,0,0)"
font-family="Sans" font-size="10" font-weight="400" font-style="normal" 
>
</g>

<g fill="#88988b" fill-opacity="1" stroke="none" transform="matrix(1,0,0,1,0,0)"
font-family="Sans" font-size="10" font-weight="400" font-style="normal" 
>
<path fill-rule="evenodd" d="M17.64,-0.44 L19.64,-0.44 L19.64,1.56 L17.64,1.56 L17.64,-0.44"/>
</g>

<g fill="none" stroke="#88988b" stroke-opacity="1" stroke-width="2" stroke-linecap="square" stroke-linejoin="bevel" transform="matrix(1,0,0,1,0,0)"
font-family="Sans" font-size="10" font-weight="400" font-style="normal" 
>
</g>

<g fill="#88988b" fill-opacity="1" stroke="none" transform="matrix(1,0,0,1,0,0)"
font-family="Sans" font-size="10" font-weight="400" font-style="normal" 
>
<path fill-rule="evenodd" d="M20.64,-0.44 L22.64,-0.44 L22.64,1.56 L20.64,1.56 L20.64,-0.44"/>
</g>

<g fill="none" stroke="#88988b" stroke-opacity="1" stroke-width="2" stroke-linecap="square" stroke-linejoin="bevel" transform="matrix(1,0,0,1,0,0)"
font-family="Sans" font-size="10" font-weight="400" font-style="normal" 
>
</g>

<g fill="#88988b" fill-opacity="1" stroke="none" transform="matrix(1,0,0,1,0,0)"
font-family="Sans" font-size="10" font-weight="400" font-style="normal" 
>
<path fill-rule="evenodd" d="M20.64,17.56 L22.64,17.56 L22.64,19.56 L20.64,19.56 L20.64,17.56"/>
</g>

<g fill="none" stroke="#88988b" stroke-opacity="1" stroke-width="2" stroke-linecap="square" stroke-linejoin="bevel" transform="matrix(1,0,0,1,0,0)"
font-family="Sans" font-size="10" font-weight="400" font-style="normal" 
>
</g>

<g fill="#88988b" fill-opacity="1" stroke="none" transform="matrix(1,0,0,1,0,0)"
font-family="Sans" font-size="10" font-weight="400" font-style="normal" 
>
<path fill-rule="evenodd" d="M17.64,18.56 L19.64,18.56 L19.64,20.56 L17.64,20.56 L17.64,18.56"/>
</g>

<g fill="none" stroke="#88988b" stroke-opacity="1" stroke-width="2" stroke-linecap="square" stroke-linejoin="bevel" transform="matrix(1,0,0,1,0,0)"
font-family="Sans" font-size="10" font-weight="400" font-style="normal" 
>
</g>

<g fill="#88988b" fill-opacity="1" stroke="none" transform="matrix(1,0,0,1,0,0)"
font-family="Sans" font-size="10" font-weight="400" font-style="normal" 
>
<path fill-rule="evenodd" d="M12.64,18.56 L14.64,18.56 L14.64,20.56 L12.64,20.56 L12.64,18.56"/>
</g>

<g fill="none" stroke="#88988b" stroke-opacity="1" stroke-width="2" stroke-linecap="square" stroke-linejoin="bevel" transform="matrix(1,0,0,1,0,0)"
font-family="Sans" font-size="10" font-weight="400" font-style="normal" 
>
<path fill-rule="evenodd" d="M10.64,18.56"/>
</g>

<g fill="#88988b" fill-opacity="1" stroke="none" transform="matrix(1,0,0,1,0,0)"
font-family="Sans" font-size="10" font-weight="400" font-style="normal" 
>
<path fill-rule="evenodd" d="M-8.36,-14.44 L-6.36,-14.44 L-6.36,-12.44 L-8.36,-12.44 L-8.36,-14.44"/>
</g>

<g fill="none" stroke="#88988b" stroke-opacity="1" stroke-width="2" stroke-linecap="square" stroke-linejoin="bevel" transform="matrix(1,0,0,1,0,0)"
font-family="Sans" font-size="10" font-weight="400" font-style="normal" 
>
</g>

<g fill="#88988b" fill-opacity="1" stroke="none" transform="matrix(1,0,0,1,0,0)"
font-family="Sans" font-size="10" font-weight="400" font-style="normal" 
>
<path fill-rule="evenodd" d="M5.64,17.56 L7.64,17.56 L7.64,19.56 L5.64,19.56 L5.64,17.56"/>
</g>

<g fill="none" stroke="#88988b" stroke-opacity="1" stroke-width="2" stroke-linecap="square" stroke-linejoin="bevel" transform="matrix(1,0,0,1,0,0)"
font-family="Sans" font-size="10" font-weight="400" font-style="normal" 
>
<path fill-rule="evenodd" d="M6.64,18.56"/>
</g>
</g>
</svg>
