<?xml version="1.0" encoding="UTF-8" standalone="no"?>
<svg width="13.4056mm" height="7.40833mm"
 viewBox="0 0 38 21"
 xmlns="http://www.w3.org/2000/svg" xmlns:xlink="http://www.w3.org/1999/xlink"  version="1.2" baseProfile="tiny">
<title>FSHRES61</title>
<desc>area where fishing or trawling is prohibited or restricted, with other cautions</desc>
<defs>
</defs>
<g fill="none" stroke="black" vector-effect="non-scaling-stroke" stroke-width="1" fill-rule="evenodd" stroke-linecap="square" stroke-linejoin="bevel" >

<g fill="none" stroke="#d4b1dd" stroke-opacity="1" stroke-width="2" stroke-linecap="square" stroke-linejoin="bevel" transform="matrix(1,0,0,1,0,0)"
font-family="Sans" font-size="10" font-weight="400" font-style="normal" 
>
<path fill-rule="evenodd" d="M-0.168,14.488 L5.832,10.488 L8.832,7.488 L10.832,5.488 L13.832,4.488 L16.832,3.488 L19.832,3.488 L22.832,3.488 L25.832,4.488 L28.832,6.488 L30.832,8.488 L32.832,10.488 L30.832,11.488 L28.832,13.488 L26.832,14.488 L23.832,15.488 L20.832,16.488 L17.832,16.488 L13.832,15.488 L10.832,14.488 L8.832,12.488 L6.832,11.488"/>
<path fill-rule="evenodd" d="M5.832,9.488 L1.832,4.488"/>
</g>

<g fill="none" stroke="#d4b1dd" stroke-opacity="1" stroke-width="3" stroke-linecap="square" stroke-linejoin="bevel" transform="matrix(1,0,0,1,0,0)"
font-family="Sans" font-size="10" font-weight="400" font-style="normal" 
>
<path fill-rule="evenodd" d="M6.832,11.488 L5.832,9.488"/>
<path fill-rule="evenodd" d="M29.832,0.488 L10.832,19.488"/>
</g>

<g fill="none" stroke="#c64dbb" stroke-opacity="1" stroke-width="1" stroke-linecap="square" stroke-linejoin="bevel" transform="matrix(1,0,0,1,0,0)"
font-family="Sans" font-size="10" font-weight="400" font-style="normal" 
>
<path fill-rule="evenodd" d="M35.832,9.488 L35.832,16.488"/>
<path fill-rule="evenodd" d="M34.832,19.488 L36.832,19.488"/>
</g>
</g>
</svg>
