<?xml version="1.0" encoding="UTF-8" standalone="no"?>
<svg width="14.8167mm" height="7.05556mm"
 viewBox="0 0 42 20"
 xmlns="http://www.w3.org/2000/svg" xmlns:xlink="http://www.w3.org/1999/xlink"  version="1.2" baseProfile="tiny">
<title>FSHRES71</title>
<desc>area where fishing or trawling is prohibited or restricted, with other information</desc>
<defs>
</defs>
<g fill="none" stroke="black" vector-effect="non-scaling-stroke" stroke-width="1" fill-rule="evenodd" stroke-linecap="square" stroke-linejoin="bevel" >

<g fill="none" stroke="#d4b1dd" stroke-opacity="1" stroke-width="2" stroke-linecap="square" stroke-linejoin="bevel" transform="matrix(1,0,0,1,0,0)"
font-family="Sans" font-size="10" font-weight="400" font-style="normal" 
>
<path fill-rule="evenodd" d="M8.344,14.488 L14.344,10.488 L17.344,7.488 L19.344,5.488 L22.344,4.488 L25.344,3.488 L28.344,3.488 L31.344,3.488 L34.344,4.488 L37.344,6.488 L39.344,8.488 L41.344,10.488 L39.344,11.488 L37.344,13.488 L35.344,14.488 L32.344,15.488 L29.344,16.488 L26.344,16.488 L22.344,15.488 L19.344,14.488 L17.344,12.488 L15.344,11.488"/>
<path fill-rule="evenodd" d="M14.344,9.488 L10.344,4.488"/>
</g>

<g fill="none" stroke="#d4b1dd" stroke-opacity="1" stroke-width="3" stroke-linecap="square" stroke-linejoin="bevel" transform="matrix(1,0,0,1,0,0)"
font-family="Sans" font-size="10" font-weight="400" font-style="normal" 
>
<path fill-rule="evenodd" d="M15.344,11.488 L14.344,9.488"/>
<path fill-rule="evenodd" d="M38.344,0.488 L19.344,19.488"/>
</g>

<g fill="none" stroke="#c64dbb" stroke-opacity="1" stroke-width="1" stroke-linecap="square" stroke-linejoin="bevel" transform="matrix(1,0,0,1,0,0)"
font-family="Sans" font-size="10" font-weight="400" font-style="normal" 
>
<path fill-rule="evenodd" d="M3.344,19.488 L3.344,11.488 L0.344,11.488"/>
<path fill-rule="evenodd" d="M0.344,19.488 L6.344,19.488"/>
<path fill-rule="evenodd" d="M1.344,7.488 L1.344,9.488"/>
</g>
</g>
</svg>
