<?xml version="1.0" encoding="UTF-8" standalone="no"?>
<svg width="5.99722mm" height="3.52778mm"
 viewBox="0 0 17 10"
 xmlns="http://www.w3.org/2000/svg" xmlns:xlink="http://www.w3.org/1999/xlink"  version="1.2" baseProfile="tiny">
<title>HULKES01</title>
<desc>hulk</desc>
<defs>
</defs>
<g fill="none" stroke="black" vector-effect="non-scaling-stroke" stroke-width="1" fill-rule="evenodd" stroke-linecap="square" stroke-linejoin="bevel" >

<path fill-rule="evenodd" d="M0.768,7.152"/>
<path fill-rule="evenodd" d="M0.768,7.152 L15.768,5.152 L14.768,4.152 L14.768,3.152 L13.768,2.152 L12.768,2.152 L11.768,1.152 L10.768,1.152 L9.768,1.152 L8.768,0.152 L6.768,0.152 L5.768,0.152 L4.768,0.152 L3.768,0.152"/>
<g fill="#000000" fill-opacity="1" stroke="#b69d40" stroke-opacity="1" vector-effect="non-scaling-stroke" stroke-width="1" stroke-linecap="square" stroke-linejoin="bevel" transform="matrix(1,0,0,1,0,0)"
font-family="Sans" font-size="10" font-weight="400" font-style="normal" 
>
<path fill-rule="evenodd" d=""/>
</g>

<g fill="none" stroke="#000000" stroke-opacity="1" vector-effect="non-scaling-stroke" stroke-width="1" stroke-linecap="square" stroke-linejoin="bevel" transform="matrix(1,0,0,1,0,0)"
font-family="Sans" font-size="10" font-weight="400" font-style="normal" 
>
</g>

<g fill="none" stroke="#5f6a60" stroke-opacity="1" stroke-width="2" stroke-linecap="square" stroke-linejoin="bevel" transform="matrix(1,0,0,1,0,0)"
font-family="Sans" font-size="10" font-weight="400" font-style="normal" 
>
<path fill-rule="evenodd" d="M3.768,0.152 L2.768,1.152 L1.768,1.152 L0.768,1.152 L0.768,7.152 M0.768,7.152 L0.768,1.152 M-0.232,1.152 L1.768,0.152 L4.768,0.152"/>
<path fill-rule="evenodd" d="M4.768,0.152 L6.768,0.152 L9.768,1.152 L12.768,2.152 L14.768,3.152 L15.768,4.152 L12.768,6.152 L10.768,7.152 L8.768,8.152 L6.768,9.152 L5.768,9.152 L3.768,8.152 L0.768,7.152"/>
</g>
</g>
</svg>
