<?xml version="1.0" encoding="UTF-8" standalone="no"?>
<svg width="8.46667mm" height="8.46667mm"
 viewBox="0 0 24 24"
 xmlns="http://www.w3.org/2000/svg" xmlns:xlink="http://www.w3.org/1999/xlink"  version="1.2" baseProfile="tiny">
<title>ISODGR01</title>
<desc>isolated danger of depth less than the safety contour</desc>
<defs>
</defs>
<g fill="none" stroke="black" vector-effect="non-scaling-stroke" stroke-width="1" fill-rule="evenodd" stroke-linecap="square" stroke-linejoin="bevel" >

<g fill="#c64dbb" fill-opacity="1" stroke="#c64dbb" stroke-opacity="1" vector-effect="non-scaling-stroke" stroke-width="1" stroke-linecap="square" stroke-linejoin="bevel" transform="matrix(1,0,0,1,0,0)"
font-family="Sans" font-size="10" font-weight="400" font-style="normal" 
>
<path fill-rule="evenodd" d="M11.64,0.44 L19.64,3.44 L22.64,11.44 L19.64,19.44 L11.64,22.44 L3.64,19.44 L0.64,11.44 L3.64,3.44 L10.64,0.44 L11.64,9.44 L15.64,4.44 L17.64,6.44 L13.64,11.44 L17.64,15.44 L15.64,18.44 L11.64,13.44 L6.64,18.44 L4.64,15.44 L8.64,11.44 L4.64,6.44 L6.64,4.44 L11.64,9.44 L11.64,0.44"/>
</g>

<g fill="none" stroke="#000000" stroke-opacity="1" vector-effect="non-scaling-stroke" stroke-width="1" stroke-linecap="square" stroke-linejoin="bevel" transform="matrix(1,0,0,1,0,0)"
font-family="Sans" font-size="10" font-weight="400" font-style="normal" 
>
<path fill-rule="evenodd" d="M11.64,0.44"/>
</g>
</g>
</svg>
