<?xml version="1.0" encoding="UTF-8" standalone="no"?>
<svg width="3.175mm" height="8.46667mm"
 viewBox="0 0 9 24"
 xmlns="http://www.w3.org/2000/svg" xmlns:xlink="http://www.w3.org/1999/xlink"  version="1.2" baseProfile="tiny">
<title>LIGHTS12</title>
<desc>light flare, green</desc>
<defs>
</defs>
<g fill="none" stroke="black" vector-effect="non-scaling-stroke" stroke-width="1" fill-rule="evenodd" stroke-linecap="square" stroke-linejoin="bevel" >

<g fill="none" stroke="#7cf05b" stroke-opacity="1" stroke-width="1" stroke-linecap="square" stroke-linejoin="bevel" transform="matrix(1,0,0,1,0,0)"
font-family="Sans" font-size="10" font-weight="400" font-style="normal" 
>
</g>

<g fill="#7cf05b" fill-opacity="0.500008" stroke="#7cf05b" stroke-opacity="1" stroke-width="1" stroke-linecap="square" stroke-linejoin="bevel" transform="matrix(1,0,0,1,0,0)"
font-family="Sans" font-size="10" font-weight="400" font-style="normal" 
>
<path fill-rule="evenodd" d="M4.48,23.16 L0.48,5.16 L0.48,4.16 L0.48,3.16 L0.48,1.16 L1.48,1.16 L2.48,0.16 L3.48,0.16 L4.48,0.16 L5.48,0.16 L6.48,1.16 L7.48,2.16 L7.48,3.16 L7.48,4.16 L4.48,23.16"/>
</g>

<g fill="none" stroke="#7cf05b" stroke-opacity="1" stroke-width="1" stroke-linecap="square" stroke-linejoin="bevel" transform="matrix(1,0,0,1,0,0)"
font-family="Sans" font-size="10" font-weight="400" font-style="normal" 
>
<path fill-rule="evenodd" d="M4.48,23.16"/>
</g>

<g fill="none" stroke="#070707" stroke-opacity="1" stroke-width="1" stroke-linecap="square" stroke-linejoin="bevel" transform="matrix(1,0,0,1,0,0)"
font-family="Sans" font-size="10" font-weight="400" font-style="normal" 
>
<path fill-rule="evenodd" d="M4.48,23.16 L0.48,5.16 L0.48,4.16 L0.48,3.16 L0.48,1.16 L1.48,1.16 L2.48,0.16 L3.48,0.16 L4.48,0.16 L5.48,0.16 L6.48,1.16 L7.48,2.16 L7.48,3.16 L7.48,4.16 L4.48,23.16"/>
</g>
</g>
</svg>
