<?xml version="1.0" encoding="UTF-8" standalone="no"?>
<svg width="10.5833mm" height="8.11389mm"
 viewBox="0 0 30 23"
 xmlns="http://www.w3.org/2000/svg" xmlns:xlink="http://www.w3.org/1999/xlink"  version="1.2" baseProfile="tiny">
<title>LITVES01</title>
<desc>light vessel, paper-chart</desc>
<defs>
</defs>
<g fill="none" stroke="black" vector-effect="non-scaling-stroke" stroke-width="1" fill-rule="evenodd" stroke-linecap="square" stroke-linejoin="bevel" >

<g fill="none" stroke="#070707" stroke-opacity="1" stroke-width="2" stroke-linecap="square" stroke-linejoin="bevel" transform="matrix(1,0,0,1,0,0)"
font-family="Sans" font-size="10" font-weight="400" font-style="normal" 
>
<path fill-rule="evenodd" d="M17.04,19.84 C17.04,20.9446 16.1446,21.84 15.04,21.84 C13.9354,21.84 13.04,20.9446 13.04,19.84 C13.04,18.7354 13.9354,17.84 15.04,17.84 C16.1446,17.84 17.04,18.7354 17.04,19.84 M0.04,19.84 L11.04,19.84 M5.04,19.84 L2.04,11.84 M24.04,19.84 L27.04,11.84 M15.04,13.84 L15.04,4.84 M8.04,13.84"/>
<path fill-rule="evenodd" d="M8.04,13.84 L8.04,7.84 M21.04,13.84 L21.04,7.84 M15.04,4.84 L15.04,-0.16 M11.04,1.84 L18.04,4.84 M11.04,4.84 L18.04,1.84 M4.04,15.84 L9.04,15.84"/>
<path fill-rule="evenodd" d="M20.04,15.84 L25.04,15.84 M2.04,11.84 L8.04,13.84 L15.04,13.84 L21.04,13.84 L27.04,11.84 M18.04,19.84 L29.04,19.84"/>
</g>
</g>
</svg>
