<?xml version="1.0" encoding="UTF-8" standalone="no"?>
<svg width="2.82222mm" height="2.82222mm"
 viewBox="0 0 8 8"
 xmlns="http://www.w3.org/2000/svg" xmlns:xlink="http://www.w3.org/1999/xlink"  version="1.2" baseProfile="tiny">
<title>LNDARE01</title>
<desc>land as a point at small scale</desc>
<defs>
</defs>
<g fill="none" stroke="black" vector-effect="non-scaling-stroke" stroke-width="1" fill-rule="evenodd" stroke-linecap="square" stroke-linejoin="bevel" >

<g fill="#ccc57b" fill-opacity="1" stroke="#ccc57b" stroke-opacity="1" vector-effect="non-scaling-stroke" stroke-width="1" stroke-linecap="square" stroke-linejoin="bevel" transform="matrix(1,0,0,1,0,0)"
font-family="Sans" font-size="10" font-weight="400" font-style="normal" 
>
<path fill-rule="evenodd" d="M5.936,3.936 C5.936,5.04057 5.04057,5.936 3.936,5.936 C2.83143,5.936 1.936,5.04057 1.936,3.936 C1.936,2.83143 2.83143,1.936 3.936,1.936 C5.04057,1.936 5.936,2.83143 5.936,3.936 "/>
</g>

<g fill="none" stroke="#000000" stroke-opacity="1" vector-effect="non-scaling-stroke" stroke-width="1" stroke-linecap="square" stroke-linejoin="bevel" transform="matrix(1,0,0,1,0,0)"
font-family="Sans" font-size="10" font-weight="400" font-style="normal" 
>
</g>

<g fill="#ccc57b" fill-opacity="1" stroke="#ccc57b" stroke-opacity="1" vector-effect="non-scaling-stroke" stroke-width="1" stroke-linecap="square" stroke-linejoin="bevel" transform="matrix(1,0,0,1,0,0)"
font-family="Sans" font-size="10" font-weight="400" font-style="normal" 
>
<path fill-rule="evenodd" d="M3.936,3.936"/>
</g>

<g fill="none" stroke="#000000" stroke-opacity="1" vector-effect="non-scaling-stroke" stroke-width="1" stroke-linecap="square" stroke-linejoin="bevel" transform="matrix(1,0,0,1,0,0)"
font-family="Sans" font-size="10" font-weight="400" font-style="normal" 
>
</g>

<g fill="none" stroke="#5f6a60" stroke-opacity="1" stroke-width="2" stroke-linecap="square" stroke-linejoin="bevel" transform="matrix(1,0,0,1,0,0)"
font-family="Sans" font-size="10" font-weight="400" font-style="normal" 
>
<path fill-rule="evenodd" d="M6.936,3.936 C6.936,5.59285 5.59285,6.936 3.936,6.936 C2.27915,6.936 0.936,5.59285 0.936,3.936 C0.936,2.27915 2.27915,0.936 3.936,0.936 C5.59285,0.936 6.936,2.27915 6.936,3.936 "/>
</g>
</g>
</svg>
