<?xml version="1.0" encoding="UTF-8" standalone="no"?>
<svg width="8.46667mm" height="4.93889mm"
 viewBox="0 0 24 14"
 xmlns="http://www.w3.org/2000/svg" xmlns:xlink="http://www.w3.org/1999/xlink"  version="1.2" baseProfile="tiny">
<title>MARCUL02</title>
<desc>fish farm</desc>
<defs>
</defs>
<g fill="none" stroke="black" vector-effect="non-scaling-stroke" stroke-width="1" fill-rule="evenodd" stroke-linecap="square" stroke-linejoin="bevel" >

<g fill="none" stroke="#88988b" stroke-opacity="1" stroke-width="1" stroke-linecap="square" stroke-linejoin="bevel" transform="matrix(1,0,0,1,0,0)"
font-family="Sans" font-size="10" font-weight="400" font-style="normal" 
>
<path fill-rule="evenodd" d="M3.328,9.464 L7.328,5.464 L9.328,3.464 L11.328,3.464 L13.328,3.464 L15.328,3.464 L17.328,4.464 L18.328,4.464 L19.328,5.464 L20.328,6.464 L19.328,7.464 L17.328,8.464 L16.328,9.464 L14.328,9.464 L13.328,9.464 L11.328,9.464 L9.328,9.464 L8.328,8.464 L3.328,4.464"/>
<path fill-rule="evenodd" d="M0.328,3.464 L0.328,0.464 L22.328,0.464 L22.328,3.464"/>
<path fill-rule="evenodd" d="M0.328,9.464 L0.328,13.464 L22.328,13.464 L22.328,9.464"/>
<path fill-rule="evenodd" d="M5.328,9.464 L5.328,13.464"/>
<path fill-rule="evenodd" d="M17.328,9.464 L17.328,13.464"/>
<path fill-rule="evenodd" d="M11.328,9.464 L11.328,12.464"/>
<path fill-rule="evenodd" d="M5.328,0.464 L5.328,3.464"/>
<path fill-rule="evenodd" d="M17.328,0.464 L17.328,3.464"/>
<path fill-rule="evenodd" d="M11.328,0.464 L11.328,3.464"/>
</g>
</g>
</svg>
