<?xml version="1.0" encoding="UTF-8" standalone="no"?>
<svg width="4.93889mm" height="4.93889mm"
 viewBox="0 0 14 14"
 xmlns="http://www.w3.org/2000/svg" xmlns:xlink="http://www.w3.org/1999/xlink"  version="1.2" baseProfile="tiny">
<title>MONUMT12</title>
<desc>conspicuous monument</desc>
<defs>
</defs>
<g fill="none" stroke="black" vector-effect="non-scaling-stroke" stroke-width="1" fill-rule="evenodd" stroke-linecap="square" stroke-linejoin="bevel" >

<g fill="none" stroke="#070707" stroke-opacity="1" stroke-width="2" stroke-linecap="square" stroke-linejoin="bevel" transform="matrix(1,0,0,1,0,0)"
font-family="Sans" font-size="10" font-weight="400" font-style="normal" 
>
<path fill-rule="evenodd" d="M8.04,12.032 C8.04,12.5843 7.59228,13.032 7.04,13.032 C6.48772,13.032 6.04,12.5843 6.04,12.032 C6.04,11.4797 6.48772,11.032 7.04,11.032 C7.59228,11.032 8.04,11.4797 8.04,12.032 "/>
<path fill-rule="evenodd" d="M0.04,12.032 L4.04,12.032"/>
<path fill-rule="evenodd" d="M8.04,12.032 L13.04,12.032"/>
</g>

<g fill="none" stroke="#070707" stroke-opacity="1" stroke-width="1" stroke-linecap="square" stroke-linejoin="bevel" transform="matrix(1,0,0,1,0,0)"
font-family="Sans" font-size="10" font-weight="400" font-style="normal" 
>
<path fill-rule="evenodd" d="M8.04,0.032 L3.04,6.032"/>
<path fill-rule="evenodd" d="M9.04,4.032 L3.04,10.032"/>
<path fill-rule="evenodd" d="M9.04,8.032 L7.04,10.032"/>
<path fill-rule="evenodd" d="M3.04,11.032 L4.04,0.032 L8.04,0.032 L10.04,11.032"/>
</g>
</g>
</svg>
