<?xml version="1.0" encoding="UTF-8" standalone="no"?>
<svg width="5.99722mm" height="5.29167mm"
 viewBox="0 0 17 15"
 xmlns="http://www.w3.org/2000/svg" xmlns:xlink="http://www.w3.org/1999/xlink"  version="1.2" baseProfile="tiny">
<title>PRDINS02</title>
<desc>mine, quarry</desc>
<defs>
</defs>
<g fill="none" stroke="black" vector-effect="non-scaling-stroke" stroke-width="1" fill-rule="evenodd" stroke-linecap="square" stroke-linejoin="bevel" >

<g fill="#b69d40" fill-opacity="1" stroke="#b69d40" stroke-opacity="1" vector-effect="non-scaling-stroke" stroke-width="1" stroke-linecap="square" stroke-linejoin="bevel" transform="matrix(1,0,0,1,0,0)"
font-family="Sans" font-size="10" font-weight="400" font-style="normal" 
>
<path fill-rule="evenodd" d="M5.8,2.44 L0.8,7.44 L-0.2,6.44 L-0.2,3.44 L2.8,0.44 L5.8,2.44"/>
</g>

<g fill="none" stroke="#000000" stroke-opacity="1" vector-effect="non-scaling-stroke" stroke-width="1" stroke-linecap="square" stroke-linejoin="bevel" transform="matrix(1,0,0,1,0,0)"
font-family="Sans" font-size="10" font-weight="400" font-style="normal" 
>
<path fill-rule="evenodd" d="M10.8,2.44"/>
</g>

<g fill="#000000" fill-opacity="1" stroke="#b69d40" stroke-opacity="1" vector-effect="non-scaling-stroke" stroke-width="1" stroke-linecap="square" stroke-linejoin="bevel" transform="matrix(1,0,0,1,0,0)"
font-family="Sans" font-size="10" font-weight="400" font-style="normal" 
>
<path fill-rule="evenodd" d=""/>
</g>

<g fill="none" stroke="#000000" stroke-opacity="1" vector-effect="non-scaling-stroke" stroke-width="1" stroke-linecap="square" stroke-linejoin="bevel" transform="matrix(1,0,0,1,0,0)"
font-family="Sans" font-size="10" font-weight="400" font-style="normal" 
>
</g>

<g fill="none" stroke="#937427" stroke-opacity="1" stroke-width="1" stroke-linecap="square" stroke-linejoin="bevel" transform="matrix(1,0,0,1,0,0)"
font-family="Sans" font-size="10" font-weight="400" font-style="normal" 
>
<path fill-rule="evenodd" d="M10.8,2.44 L15.8,7.44 L10.8,2.44 M3.8,4.44 L12.8,13.44 M12.8,4.44 L3.8,13.44 M2.8,0.44 L5.8,2.44 L0.8,7.44 L-0.2,6.44"/>
<path fill-rule="evenodd" d="M-0.2,6.44 L-0.2,3.44 L2.8,0.44 M13.8,0.44 L16.8,3.44 L16.8,6.44 L15.8,7.44 L10.8,2.44 L13.8,0.44"/>
</g>
</g>
</svg>
