<?xml version="1.0" encoding="UTF-8" standalone="no"?>
<svg width="7.05556mm" height="7.40833mm"
 viewBox="0 0 20 21"
 xmlns="http://www.w3.org/2000/svg" xmlns:xlink="http://www.w3.org/1999/xlink"  version="1.2" baseProfile="tiny">
<title>RADRFL03</title>
<desc>radar reflector</desc>
<defs>
</defs>
<g fill="none" stroke="black" vector-effect="non-scaling-stroke" stroke-width="1" fill-rule="evenodd" stroke-linecap="square" stroke-linejoin="bevel" >

<g fill="none" stroke="#c64dbb" stroke-opacity="1" stroke-width="1" stroke-linecap="square" stroke-linejoin="bevel" transform="matrix(1,0,0,1,0,0)"
font-family="Sans" font-size="10" font-weight="400" font-style="normal" 
>
<path fill-rule="evenodd" d="M13.912,9.832 C13.912,12.0411 12.1211,13.832 9.912,13.832 C7.70286,13.832 5.912,12.0411 5.912,9.832 C5.912,7.62286 7.70286,5.832 9.912,5.832 C12.1211,5.832 13.912,7.62286 13.912,9.832 "/>
<path fill-rule="evenodd" d="M9.912,4.832 L9.912,-0.168"/>
<path fill-rule="evenodd" d="M9.912,14.832 L9.912,19.832"/>
<path fill-rule="evenodd" d="M14.912,9.832 L19.912,9.832"/>
<path fill-rule="evenodd" d="M4.912,9.832 L-0.088,9.832"/>
<path fill-rule="evenodd" d="M12.912,12.832 L16.912,16.832"/>
<path fill-rule="evenodd" d="M16.912,2.832 L12.912,6.832"/>
<path fill-rule="evenodd" d="M6.912,12.832 L2.912,16.832"/>
<path fill-rule="evenodd" d="M2.912,2.832 L6.912,6.832"/>
</g>
</g>
</svg>
