<?xml version="1.0" encoding="UTF-8" standalone="no"?>
<svg width="4.93889mm" height="6.70278mm"
 viewBox="0 0 14 19"
 xmlns="http://www.w3.org/2000/svg" xmlns:xlink="http://www.w3.org/1999/xlink"  version="1.2" baseProfile="tiny">
<title>RASCAN11</title>
<desc>conspicuous radar scanner</desc>
<defs>
</defs>
<g fill="none" stroke="black" vector-effect="non-scaling-stroke" stroke-width="1" fill-rule="evenodd" stroke-linecap="square" stroke-linejoin="bevel" >

<g fill="none" stroke="#070707" stroke-opacity="1" stroke-width="1" stroke-linecap="square" stroke-linejoin="bevel" transform="matrix(1,0,0,1,0,0)"
font-family="Sans" font-size="10" font-weight="400" font-style="normal" 
>
<path fill-rule="evenodd" d="M8.168,16.448 C8.168,17.0003 7.72028,17.448 7.168,17.448 C6.61572,17.448 6.168,17.0003 6.168,16.448 C6.168,15.8957 6.61572,15.448 7.168,15.448 C7.72028,15.448 8.168,15.8957 8.168,16.448 "/>
<path fill-rule="evenodd" d="M3.168,15.448 L3.168,4.448"/>
<path fill-rule="evenodd" d="M10.168,15.448 L10.168,4.448 L4.168,4.448"/>
<path fill-rule="evenodd" d="M5.168,15.448 L1.168,15.448"/>
<path fill-rule="evenodd" d="M8.168,15.448 L12.168,15.448"/>
<path fill-rule="evenodd" d="M4.168,4.448 L3.168,4.448"/>
<path fill-rule="evenodd" d="M6.168,4.448 L6.168,0.448"/>
</g>

<g fill="none" stroke="#070707" stroke-opacity="1" stroke-width="2" stroke-linecap="square" stroke-linejoin="bevel" transform="matrix(1,0,0,1,0,0)"
font-family="Sans" font-size="10" font-weight="400" font-style="normal" 
>
<path fill-rule="evenodd" d="M0.168,0.448 L13.168,0.448"/>
</g>
</g>
</svg>
