<?xml version="1.0" encoding="UTF-8" standalone="no"?>
<svg width="8.11389mm" height="8.11389mm"
 viewBox="0 0 23 23"
 xmlns="http://www.w3.org/2000/svg" xmlns:xlink="http://www.w3.org/1999/xlink"  version="1.2" baseProfile="tiny">
<title>RFNERY01</title>
<desc>refinery</desc>
<defs>
</defs>
<g fill="none" stroke="black" vector-effect="non-scaling-stroke" stroke-width="1" fill-rule="evenodd" stroke-linecap="square" stroke-linejoin="bevel" >

<g fill="none" stroke="#937427" stroke-opacity="1" stroke-width="1" stroke-linecap="square" stroke-linejoin="bevel" transform="matrix(1,0,0,1,0,0)"
font-family="Sans" font-size="10" font-weight="400" font-style="normal" 
>
</g>

<g fill="#937427" fill-opacity="1" stroke="#937427" stroke-opacity="1" stroke-width="1" stroke-linecap="square" stroke-linejoin="bevel" transform="matrix(1,0,0,1,0,0)"
font-family="Sans" font-size="10" font-weight="400" font-style="normal" 
>
<path fill-rule="evenodd" d="M9.232,19.456 L9.232,8.456 L12.232,8.456 L12.232,19.456 L12.232,17.456 L11.232,17.456 L9.232,17.456 L9.232,19.456"/>
</g>

<g fill="none" stroke="#937427" stroke-opacity="1" stroke-width="1" stroke-linecap="square" stroke-linejoin="bevel" transform="matrix(1,0,0,1,0,0)"
font-family="Sans" font-size="10" font-weight="400" font-style="normal" 
>
<path fill-rule="evenodd" d="M9.232,19.456"/>
</g>

<g fill="none" stroke="#937427" stroke-opacity="1" stroke-width="2" stroke-linecap="square" stroke-linejoin="bevel" transform="matrix(1,0,0,1,0,0)"
font-family="Sans" font-size="10" font-weight="400" font-style="normal" 
>
<path fill-rule="evenodd" d="M12.232,1.456 L11.232,1.456 L10.232,2.456 L9.232,3.456 L9.232,4.456 L9.232,5.456 L9.232,6.456 L10.232,6.456 L11.232,6.456 L12.232,5.456 L12.232,4.456 L11.232,4.456 L11.232,3.456 L11.232,2.456 L12.232,1.456"/>
</g>

<g fill="none" stroke="#937427" stroke-opacity="1" stroke-width="1" stroke-linecap="square" stroke-linejoin="bevel" transform="matrix(1,0,0,1,0,0)"
font-family="Sans" font-size="10" font-weight="400" font-style="normal" 
>
<path fill-rule="evenodd" d="M21.232,11.456 C21.232,16.9788 16.7548,21.456 11.232,21.456 C5.70915,21.456 1.232,16.9788 1.232,11.456 C1.232,5.93315 5.70915,1.456 11.232,1.456 C16.7548,1.456 21.232,5.93315 21.232,11.456 "/>
</g>

<g fill="none" stroke="#937427" stroke-opacity="1" stroke-width="2" stroke-linecap="square" stroke-linejoin="bevel" transform="matrix(1,0,0,1,0,0)"
font-family="Sans" font-size="10" font-weight="400" font-style="normal" 
>
<path fill-rule="evenodd" d="M6.232,18.456 L15.232,18.456"/>
</g>
</g>
</svg>
