<?xml version="1.0" encoding="UTF-8" standalone="no"?>
<svg width="15.1694mm" height="11.6417mm"
 viewBox="0 0 43 33"
 xmlns="http://www.w3.org/2000/svg" xmlns:xlink="http://www.w3.org/1999/xlink"  version="1.2" baseProfile="tiny">
<title>RSRDEF51</title>
<desc>area in which undefined restrictions exist</desc>
<defs>
</defs>
<g fill="none" stroke="black" vector-effect="non-scaling-stroke" stroke-width="1" fill-rule="evenodd" stroke-linecap="square" stroke-linejoin="bevel" >

<g fill="none" stroke="#d4b1dd" stroke-opacity="1" stroke-width="3" stroke-linecap="square" stroke-linejoin="bevel" transform="matrix(1,0,0,1,0,0)"
font-family="Sans" font-size="10" font-weight="400" font-style="normal" 
>
<path fill-rule="evenodd" d="M16.488,19.856 L16.488,4.856"/>
</g>

<g fill="none" stroke="#d4b1dd" stroke-opacity="1" stroke-width="2" stroke-linecap="square" stroke-linejoin="bevel" transform="matrix(1,0,0,1,0,0)"
font-family="Sans" font-size="10" font-weight="400" font-style="normal" 
>
<path fill-rule="evenodd" d="M13.488,25.856 L18.488,25.856"/>
<path fill-rule="evenodd" d="M31.488,15.856 C31.488,24.1403 24.7723,30.856 16.488,30.856 C8.20373,30.856 1.488,24.1403 1.488,15.856 C1.488,7.57173 8.20373,0.856 16.488,0.856 C24.7723,0.856 31.488,7.57173 31.488,15.856 "/>
</g>

<g fill="none" stroke="#c64dbb" stroke-opacity="1" stroke-width="1" stroke-linecap="square" stroke-linejoin="bevel" transform="matrix(1,0,0,1,0,0)"
font-family="Sans" font-size="10" font-weight="400" font-style="normal" 
>
<path fill-rule="evenodd" d="M35.488,20.856 L35.488,19.856 L36.488,18.856 L37.488,17.856 L38.488,17.856 L39.488,17.856 L40.488,17.856 L41.488,19.856 L42.488,20.856 L42.488,21.856 L41.488,21.856 L41.488,22.856 L40.488,23.856 L40.488,24.856 L39.488,25.856 L38.488,26.856 L38.488,27.856 L38.488,28.856"/>
</g>

<g fill="none" stroke="#c64dbb" stroke-opacity="1" stroke-width="2" stroke-linecap="square" stroke-linejoin="bevel" transform="matrix(1,0,0,1,0,0)"
font-family="Sans" font-size="10" font-weight="400" font-style="normal" 
>
<path fill-rule="evenodd" d="M38.488,31.856 L39.488,31.856"/>
</g>
</g>
</svg>
