<?xml version="1.0" encoding="UTF-8" standalone="no"?>
<svg width="3.88056mm" height="3.88056mm"
 viewBox="0 0 11 11"
 xmlns="http://www.w3.org/2000/svg" xmlns:xlink="http://www.w3.org/1999/xlink"  version="1.2" baseProfile="tiny">
<title>SILBUI11</title>
<desc>conspicuous silo</desc>
<defs>
</defs>
<g fill="none" stroke="black" vector-effect="non-scaling-stroke" stroke-width="1" fill-rule="evenodd" stroke-linecap="square" stroke-linejoin="bevel" >

<g fill="#937427" fill-opacity="1" stroke="#937427" stroke-opacity="1" vector-effect="non-scaling-stroke" stroke-width="1" stroke-linecap="square" stroke-linejoin="bevel" transform="matrix(1,0,0,1,0,0)"
font-family="Sans" font-size="10" font-weight="400" font-style="normal" 
>
<path fill-rule="evenodd" d="M9.44,5.44 C9.44,7.64914 7.64914,9.44 5.44,9.44 C3.23086,9.44 1.44,7.64914 1.44,5.44 C1.44,3.23086 3.23086,1.44 5.44,1.44 C7.64914,1.44 9.44,3.23086 9.44,5.44 "/>
</g>

<g fill="none" stroke="#000000" stroke-opacity="1" vector-effect="non-scaling-stroke" stroke-width="1" stroke-linecap="square" stroke-linejoin="bevel" transform="matrix(1,0,0,1,0,0)"
font-family="Sans" font-size="10" font-weight="400" font-style="normal" 
>
</g>

<g fill="#937427" fill-opacity="1" stroke="#937427" stroke-opacity="1" vector-effect="non-scaling-stroke" stroke-width="1" stroke-linecap="square" stroke-linejoin="bevel" transform="matrix(1,0,0,1,0,0)"
font-family="Sans" font-size="10" font-weight="400" font-style="normal" 
>
<path fill-rule="evenodd" d="M5.44,5.44"/>
</g>

<g fill="none" stroke="#000000" stroke-opacity="1" vector-effect="non-scaling-stroke" stroke-width="1" stroke-linecap="square" stroke-linejoin="bevel" transform="matrix(1,0,0,1,0,0)"
font-family="Sans" font-size="10" font-weight="400" font-style="normal" 
>
</g>

<g fill="none" stroke="#070707" stroke-opacity="1" stroke-width="2" stroke-linecap="square" stroke-linejoin="bevel" transform="matrix(1,0,0,1,0,0)"
font-family="Sans" font-size="10" font-weight="400" font-style="normal" 
>
<path fill-rule="evenodd" d="M9.44,5.44 C9.44,7.64914 7.64914,9.44 5.44,9.44 C3.23086,9.44 1.44,7.64914 1.44,5.44 C1.44,3.23086 3.23086,1.44 5.44,1.44 C7.64914,1.44 9.44,3.23086 9.44,5.44 "/>
</g>
</g>
</svg>
