<?xml version="1.0" encoding="UTF-8" standalone="no"?>
<svg width="8.11389mm" height="8.11389mm"
 viewBox="0 0 23 23"
 xmlns="http://www.w3.org/2000/svg" xmlns:xlink="http://www.w3.org/1999/xlink"  version="1.2" baseProfile="tiny">
<title>SMCFAC02</title>
<desc>yacht harbour, marina</desc>
<defs>
</defs>
<g fill="none" stroke="black" vector-effect="non-scaling-stroke" stroke-width="1" fill-rule="evenodd" stroke-linecap="square" stroke-linejoin="bevel" >

<g fill="none" stroke="#c64dbb" stroke-opacity="1" stroke-width="1" stroke-linecap="square" stroke-linejoin="bevel" transform="matrix(1,0,0,1,0,0)"
font-family="Sans" font-size="10" font-weight="400" font-style="normal" 
>
<path fill-rule="evenodd" d="M13.52,0.68 L11.52,4.68 L11.52,16.68 L20.52,14.68 L19.52,13.68 L18.52,13.68 L17.52,12.68 L16.52,10.68 L15.52,9.68 L15.52,8.68 L14.52,6.68 L14.52,5.68 L13.52,3.68 L13.52,2.68 L13.52,1.68 L13.52,0.68"/>
<path fill-rule="evenodd" d="M11.52,3.68 L10.52,3.68 L9.52,4.68 L8.52,4.68 L7.52,5.68 L6.52,6.68 L6.52,7.68 L5.52,8.68 L5.52,9.68 L4.52,10.68 L4.52,11.68 L4.52,12.68 L3.52,13.68 L3.52,15.68 L4.52,16.68 L4.52,17.68 L5.52,16.68 L5.52,15.68 L6.52,15.68 L7.52,15.68 L8.52,15.68 L9.52,15.68 L9.52,14.68 L8.52,13.68 L8.52,11.68 L7.52,11.68 L7.52,10.68 L7.52,9.68 L7.52,8.68 L8.52,7.68 L8.52,6.68 L9.52,5.68 L9.52,4.68 L10.52,3.68 L11.52,3.68"/>
<path fill-rule="evenodd" d="M21.52,11.68 C21.52,17.2028 17.0428,21.68 11.52,21.68 C5.99715,21.68 1.52,17.2028 1.52,11.68 C1.52,6.15715 5.99715,1.68 11.52,1.68 C17.0428,1.68 21.52,6.15715 21.52,11.68 "/>
<path fill-rule="evenodd" d="M11.52,-0.32 L11.52,18.68"/>
<path fill-rule="evenodd" d="M3.52,18.68 L18.52,18.68"/>
</g>
</g>
</svg>
