<?xml version="1.0" encoding="UTF-8" standalone="no"?>
<svg width="2.82222mm" height="4.93889mm"
 viewBox="0 0 8 14"
 xmlns="http://www.w3.org/2000/svg" xmlns:xlink="http://www.w3.org/1999/xlink"  version="1.2" baseProfile="tiny">
<title>TOPMAR12</title>
<desc>topmark for buoys, 2 spheres, paper-chart</desc>
<defs>
</defs>
<g fill="none" stroke="black" vector-effect="non-scaling-stroke" stroke-width="1" fill-rule="evenodd" stroke-linecap="square" stroke-linejoin="bevel" >

<g fill="#070707" fill-opacity="1" stroke="#070707" stroke-opacity="1" vector-effect="non-scaling-stroke" stroke-width="1" stroke-linecap="square" stroke-linejoin="bevel" transform="matrix(1,0,0,1,0,0)"
font-family="Sans" font-size="10" font-weight="400" font-style="normal" 
>
<path fill-rule="evenodd" d="M5.04,9.88 C5.04,10.9846 4.14457,11.88 3.04,11.88 C1.93543,11.88 1.04,10.9846 1.04,9.88 C1.04,8.77543 1.93543,7.88 3.04,7.88 C4.14457,7.88 5.04,8.77543 5.04,9.88 "/>
</g>

<g fill="none" stroke="#000000" stroke-opacity="1" vector-effect="non-scaling-stroke" stroke-width="1" stroke-linecap="square" stroke-linejoin="bevel" transform="matrix(1,0,0,1,0,0)"
font-family="Sans" font-size="10" font-weight="400" font-style="normal" 
>
</g>

<g fill="#070707" fill-opacity="1" stroke="#070707" stroke-opacity="1" vector-effect="non-scaling-stroke" stroke-width="1" stroke-linecap="square" stroke-linejoin="bevel" transform="matrix(1,0,0,1,0,0)"
font-family="Sans" font-size="10" font-weight="400" font-style="normal" 
>
<path fill-rule="evenodd" d="M3.04,9.88"/>
</g>

<g fill="none" stroke="#000000" stroke-opacity="1" vector-effect="non-scaling-stroke" stroke-width="1" stroke-linecap="square" stroke-linejoin="bevel" transform="matrix(1,0,0,1,0,0)"
font-family="Sans" font-size="10" font-weight="400" font-style="normal" 
>
</g>

<g fill="#070707" fill-opacity="1" stroke="#070707" stroke-opacity="1" vector-effect="non-scaling-stroke" stroke-width="1" stroke-linecap="square" stroke-linejoin="bevel" transform="matrix(1,0,0,1,0,0)"
font-family="Sans" font-size="10" font-weight="400" font-style="normal" 
>
<path fill-rule="evenodd" d="M6.04,2.88 C6.04,3.98457 5.14457,4.88 4.04,4.88 C2.93543,4.88 2.04,3.98457 2.04,2.88 C2.04,1.77543 2.93543,0.88 4.04,0.88 C5.14457,0.88 6.04,1.77543 6.04,2.88 "/>
</g>

<g fill="none" stroke="#000000" stroke-opacity="1" vector-effect="non-scaling-stroke" stroke-width="1" stroke-linecap="square" stroke-linejoin="bevel" transform="matrix(1,0,0,1,0,0)"
font-family="Sans" font-size="10" font-weight="400" font-style="normal" 
>
</g>

<g fill="#070707" fill-opacity="1" stroke="#070707" stroke-opacity="1" vector-effect="non-scaling-stroke" stroke-width="1" stroke-linecap="square" stroke-linejoin="bevel" transform="matrix(1,0,0,1,0,0)"
font-family="Sans" font-size="10" font-weight="400" font-style="normal" 
>
<path fill-rule="evenodd" d="M4.04,2.88"/>
</g>

<g fill="none" stroke="#000000" stroke-opacity="1" vector-effect="non-scaling-stroke" stroke-width="1" stroke-linecap="square" stroke-linejoin="bevel" transform="matrix(1,0,0,1,0,0)"
font-family="Sans" font-size="10" font-weight="400" font-style="normal" 
>
<path fill-rule="evenodd" d="M4.04,2.88"/>
</g>
</g>
</svg>
