<?xml version="1.0" encoding="UTF-8" standalone="no"?>
<svg width="7.05556mm" height="7.05556mm"
 viewBox="0 0 20 20"
 xmlns="http://www.w3.org/2000/svg" xmlns:xlink="http://www.w3.org/1999/xlink"  version="1.2" baseProfile="tiny">
<title>WAYPNT11</title>
<desc>next waypoint on planned route</desc>
<defs>
</defs>
<g fill="none" stroke="black" vector-effect="non-scaling-stroke" stroke-width="1" fill-rule="evenodd" stroke-linecap="square" stroke-linejoin="bevel" >

<g fill="none" stroke="#da462d" stroke-opacity="1" stroke-width="2" stroke-linecap="square" stroke-linejoin="bevel" transform="matrix(1,0,0,1,0,0)"
font-family="Sans" font-size="10" font-weight="400" font-style="normal" 
>
<path fill-rule="evenodd" d="M19.24,10.24 C19.24,15.2106 15.2106,19.24 10.24,19.24 C5.26944,19.24 1.24,15.2106 1.24,10.24 C1.24,5.26944 5.26944,1.24 10.24,1.24 C15.2106,1.24 19.24,5.26944 19.24,10.24 "/>
<path fill-rule="evenodd" d="M15.24,9.24 C15.24,12.5537 12.5537,15.24 9.24,15.24 C5.92629,15.24 3.24,12.5537 3.24,9.24 C3.24,5.92629 5.92629,3.24 9.24,3.24 C12.5537,3.24 15.24,5.92629 15.24,9.24 "/>
</g>
</g>
</svg>
