<?xml version="1.0" encoding="UTF-8" standalone="no"?>
<svg width="4.58611mm" height="7.76111mm"
 viewBox="0 0 13 22"
 xmlns="http://www.w3.org/2000/svg" xmlns:xlink="http://www.w3.org/1999/xlink"  version="1.2" baseProfile="tiny">
<title>WIMCON11</title>
<desc>conspicuous windmotor</desc>
<defs>
</defs>
<g fill="none" stroke="black" vector-effect="non-scaling-stroke" stroke-width="1" fill-rule="evenodd" stroke-linecap="square" stroke-linejoin="bevel" >

<g fill="none" stroke="#070707" stroke-opacity="1" stroke-width="2" stroke-linecap="square" stroke-linejoin="bevel" transform="matrix(1,0,0,1,0,0)"
font-family="Sans" font-size="10" font-weight="400" font-style="normal" 
>
<path fill-rule="evenodd" d="M6.44,20.256 C6.44,20.8083 5.99228,21.256 5.44,21.256 C4.88772,21.256 4.44,20.8083 4.44,20.256 C4.44,19.7037 4.88772,19.256 5.44,19.256 C5.99228,19.256 6.44,19.7037 6.44,20.256 M5.44,5.256 L5.44,18.256 M6.44,20.256 L9.44,20.256 M3.44,20.256 L0.44,20.256 M5.44,5.256 L11.44,5.256 M5.44,5.256"/>
<path fill-rule="evenodd" d="M5.44,5.256 L0.44,0.256 M5.44,5.256 L0.44,10.256"/>
</g>
</g>
</svg>
