<?xml version="1.0" encoding="UTF-8" standalone="no"?>
<svg width="7.05556mm" height="4.93889mm"
 viewBox="0 0 20 14"
 xmlns="http://www.w3.org/2000/svg" xmlns:xlink="http://www.w3.org/1999/xlink"  version="1.2" baseProfile="tiny">
<title>WRECKS05</title>
<desc>dangerous wreck, depth unknown</desc>
<defs>
</defs>
<g fill="none" stroke="black" vector-effect="non-scaling-stroke" stroke-width="1" fill-rule="evenodd" stroke-linecap="square" stroke-linejoin="bevel" >

<g fill="none" stroke="#81c3e2" stroke-opacity="1" stroke-width="1" stroke-linecap="square" stroke-linejoin="bevel" transform="matrix(1,0,0,1,0,0)"
font-family="Sans" font-size="10" font-weight="400" font-style="normal" 
>
</g>

<g fill="#81c3e2" fill-opacity="1" stroke="#81c3e2" stroke-opacity="1" stroke-width="1" stroke-linecap="square" stroke-linejoin="bevel" transform="matrix(1,0,0,1,0,0)"
font-family="Sans" font-size="10" font-weight="400" font-style="normal" 
>
<path fill-rule="evenodd" d="M0.144,5.36 L2.144,3.36 L5.144,1.36 L7.144,0.36 L11.144,0.36 L14.144,1.36 L17.144,3.36 L19.144,5.36 L19.144,8.36 L17.144,10.36 L14.144,12.36 L11.144,13.36 L8.144,13.36 L5.144,12.36 L2.144,10.36 L0.144,8.36 L0.144,5.36"/>
</g>

<g fill="none" stroke="#81c3e2" stroke-opacity="1" stroke-width="1" stroke-linecap="square" stroke-linejoin="bevel" transform="matrix(1,0,0,1,0,0)"
font-family="Sans" font-size="10" font-weight="400" font-style="normal" 
>
<path fill-rule="evenodd" d="M0.144,5.36"/>
</g>

<g fill="none" stroke="#070707" stroke-opacity="1" stroke-width="1" stroke-linecap="square" stroke-linejoin="bevel" transform="matrix(1,0,0,1,0,0)"
font-family="Sans" font-size="10" font-weight="400" font-style="normal" 
>
<path fill-rule="evenodd" d="M5.144,3.36 L5.144,10.36"/>
<path fill-rule="evenodd" d="M14.144,3.36 L14.144,10.36"/>
<path fill-rule="evenodd" d="M2.144,7.36 L18.144,7.36"/>
<path fill-rule="evenodd" d="M10.144,2.36 L10.144,11.36"/>
</g>

<g fill="#070707" fill-opacity="1" stroke="none" transform="matrix(1,0,0,1,0,0)"
font-family="Sans" font-size="10" font-weight="400" font-style="normal" 
>
<path fill-rule="evenodd" d="M-0.356,4.86 L0.644,4.86 L0.644,5.86 L-0.356,5.86 L-0.356,4.86"/>
</g>

<g fill="none" stroke="#070707" stroke-opacity="1" stroke-width="1" stroke-linecap="square" stroke-linejoin="bevel" transform="matrix(1,0,0,1,0,0)"
font-family="Sans" font-size="10" font-weight="400" font-style="normal" 
>
<path fill-rule="evenodd" d="M0.144,5.36"/>
</g>

<g fill="#070707" fill-opacity="1" stroke="none" transform="matrix(1,0,0,1,0,0)"
font-family="Sans" font-size="10" font-weight="400" font-style="normal" 
>
<path fill-rule="evenodd" d="M1.644,2.86 L2.644,2.86 L2.644,3.86 L1.644,3.86 L1.644,2.86"/>
</g>

<g fill="none" stroke="#070707" stroke-opacity="1" stroke-width="1" stroke-linecap="square" stroke-linejoin="bevel" transform="matrix(1,0,0,1,0,0)"
font-family="Sans" font-size="10" font-weight="400" font-style="normal" 
>
<path fill-rule="evenodd" d="M2.144,3.36"/>
</g>

<g fill="#070707" fill-opacity="1" stroke="none" transform="matrix(1,0,0,1,0,0)"
font-family="Sans" font-size="10" font-weight="400" font-style="normal" 
>
<path fill-rule="evenodd" d="M4.644,0.86 L5.644,0.86 L5.644,1.86 L4.644,1.86 L4.644,0.86"/>
</g>

<g fill="none" stroke="#070707" stroke-opacity="1" stroke-width="1" stroke-linecap="square" stroke-linejoin="bevel" transform="matrix(1,0,0,1,0,0)"
font-family="Sans" font-size="10" font-weight="400" font-style="normal" 
>
<path fill-rule="evenodd" d="M5.144,1.36"/>
</g>

<g fill="#070707" fill-opacity="1" stroke="none" transform="matrix(1,0,0,1,0,0)"
font-family="Sans" font-size="10" font-weight="400" font-style="normal" 
>
<path fill-rule="evenodd" d="M6.644,-0.14 L7.644,-0.14 L7.644,0.86 L6.644,0.86 L6.644,-0.14"/>
</g>

<g fill="none" stroke="#070707" stroke-opacity="1" stroke-width="1" stroke-linecap="square" stroke-linejoin="bevel" transform="matrix(1,0,0,1,0,0)"
font-family="Sans" font-size="10" font-weight="400" font-style="normal" 
>
<path fill-rule="evenodd" d="M7.144,0.36"/>
</g>

<g fill="#070707" fill-opacity="1" stroke="none" transform="matrix(1,0,0,1,0,0)"
font-family="Sans" font-size="10" font-weight="400" font-style="normal" 
>
<path fill-rule="evenodd" d="M10.644,-0.14 L11.644,-0.14 L11.644,0.86 L10.644,0.86 L10.644,-0.14"/>
</g>

<g fill="none" stroke="#070707" stroke-opacity="1" stroke-width="1" stroke-linecap="square" stroke-linejoin="bevel" transform="matrix(1,0,0,1,0,0)"
font-family="Sans" font-size="10" font-weight="400" font-style="normal" 
>
<path fill-rule="evenodd" d="M11.144,0.36"/>
</g>

<g fill="#070707" fill-opacity="1" stroke="none" transform="matrix(1,0,0,1,0,0)"
font-family="Sans" font-size="10" font-weight="400" font-style="normal" 
>
<path fill-rule="evenodd" d="M13.644,0.86 L14.644,0.86 L14.644,1.86 L13.644,1.86 L13.644,0.86"/>
</g>

<g fill="none" stroke="#070707" stroke-opacity="1" stroke-width="1" stroke-linecap="square" stroke-linejoin="bevel" transform="matrix(1,0,0,1,0,0)"
font-family="Sans" font-size="10" font-weight="400" font-style="normal" 
>
<path fill-rule="evenodd" d="M14.144,1.36"/>
</g>

<g fill="#070707" fill-opacity="1" stroke="none" transform="matrix(1,0,0,1,0,0)"
font-family="Sans" font-size="10" font-weight="400" font-style="normal" 
>
<path fill-rule="evenodd" d="M16.644,2.86 L17.644,2.86 L17.644,3.86 L16.644,3.86 L16.644,2.86"/>
</g>

<g fill="none" stroke="#070707" stroke-opacity="1" stroke-width="1" stroke-linecap="square" stroke-linejoin="bevel" transform="matrix(1,0,0,1,0,0)"
font-family="Sans" font-size="10" font-weight="400" font-style="normal" 
>
<path fill-rule="evenodd" d="M17.144,3.36"/>
</g>

<g fill="#070707" fill-opacity="1" stroke="none" transform="matrix(1,0,0,1,0,0)"
font-family="Sans" font-size="10" font-weight="400" font-style="normal" 
>
<path fill-rule="evenodd" d="M18.644,4.86 L19.644,4.86 L19.644,5.86 L18.644,5.86 L18.644,4.86"/>
</g>

<g fill="none" stroke="#070707" stroke-opacity="1" stroke-width="1" stroke-linecap="square" stroke-linejoin="bevel" transform="matrix(1,0,0,1,0,0)"
font-family="Sans" font-size="10" font-weight="400" font-style="normal" 
>
<path fill-rule="evenodd" d="M19.144,5.36"/>
</g>

<g fill="#070707" fill-opacity="1" stroke="none" transform="matrix(1,0,0,1,0,0)"
font-family="Sans" font-size="10" font-weight="400" font-style="normal" 
>
<path fill-rule="evenodd" d="M-0.356,7.86 L0.644,7.86 L0.644,8.86 L-0.356,8.86 L-0.356,7.86"/>
</g>

<g fill="none" stroke="#070707" stroke-opacity="1" stroke-width="1" stroke-linecap="square" stroke-linejoin="bevel" transform="matrix(1,0,0,1,0,0)"
font-family="Sans" font-size="10" font-weight="400" font-style="normal" 
>
<path fill-rule="evenodd" d="M0.144,8.36"/>
</g>

<g fill="#070707" fill-opacity="1" stroke="none" transform="matrix(1,0,0,1,0,0)"
font-family="Sans" font-size="10" font-weight="400" font-style="normal" 
>
<path fill-rule="evenodd" d="M1.644,9.86 L2.644,9.86 L2.644,10.86 L1.644,10.86 L1.644,9.86"/>
</g>

<g fill="none" stroke="#070707" stroke-opacity="1" stroke-width="1" stroke-linecap="square" stroke-linejoin="bevel" transform="matrix(1,0,0,1,0,0)"
font-family="Sans" font-size="10" font-weight="400" font-style="normal" 
>
<path fill-rule="evenodd" d="M2.144,10.36"/>
</g>

<g fill="#070707" fill-opacity="1" stroke="none" transform="matrix(1,0,0,1,0,0)"
font-family="Sans" font-size="10" font-weight="400" font-style="normal" 
>
<path fill-rule="evenodd" d="M4.644,11.86 L5.644,11.86 L5.644,12.86 L4.644,12.86 L4.644,11.86"/>
</g>

<g fill="none" stroke="#070707" stroke-opacity="1" stroke-width="1" stroke-linecap="square" stroke-linejoin="bevel" transform="matrix(1,0,0,1,0,0)"
font-family="Sans" font-size="10" font-weight="400" font-style="normal" 
>
<path fill-rule="evenodd" d="M5.144,12.36"/>
</g>

<g fill="#070707" fill-opacity="1" stroke="none" transform="matrix(1,0,0,1,0,0)"
font-family="Sans" font-size="10" font-weight="400" font-style="normal" 
>
<path fill-rule="evenodd" d="M7.644,12.86 L8.644,12.86 L8.644,13.86 L7.644,13.86 L7.644,12.86"/>
</g>

<g fill="none" stroke="#070707" stroke-opacity="1" stroke-width="1" stroke-linecap="square" stroke-linejoin="bevel" transform="matrix(1,0,0,1,0,0)"
font-family="Sans" font-size="10" font-weight="400" font-style="normal" 
>
<path fill-rule="evenodd" d="M8.144,13.36"/>
</g>

<g fill="#070707" fill-opacity="1" stroke="none" transform="matrix(1,0,0,1,0,0)"
font-family="Sans" font-size="10" font-weight="400" font-style="normal" 
>
<path fill-rule="evenodd" d="M10.644,12.86 L11.644,12.86 L11.644,13.86 L10.644,13.86 L10.644,12.86"/>
</g>

<g fill="none" stroke="#070707" stroke-opacity="1" stroke-width="1" stroke-linecap="square" stroke-linejoin="bevel" transform="matrix(1,0,0,1,0,0)"
font-family="Sans" font-size="10" font-weight="400" font-style="normal" 
>
<path fill-rule="evenodd" d="M11.144,13.36"/>
</g>

<g fill="#070707" fill-opacity="1" stroke="none" transform="matrix(1,0,0,1,0,0)"
font-family="Sans" font-size="10" font-weight="400" font-style="normal" 
>
<path fill-rule="evenodd" d="M13.644,11.86 L14.644,11.86 L14.644,12.86 L13.644,12.86 L13.644,11.86"/>
</g>

<g fill="none" stroke="#070707" stroke-opacity="1" stroke-width="1" stroke-linecap="square" stroke-linejoin="bevel" transform="matrix(1,0,0,1,0,0)"
font-family="Sans" font-size="10" font-weight="400" font-style="normal" 
>
<path fill-rule="evenodd" d="M14.144,12.36"/>
</g>

<g fill="#070707" fill-opacity="1" stroke="none" transform="matrix(1,0,0,1,0,0)"
font-family="Sans" font-size="10" font-weight="400" font-style="normal" 
>
<path fill-rule="evenodd" d="M16.644,9.86 L17.644,9.86 L17.644,10.86 L16.644,10.86 L16.644,9.86"/>
</g>

<g fill="none" stroke="#070707" stroke-opacity="1" stroke-width="1" stroke-linecap="square" stroke-linejoin="bevel" transform="matrix(1,0,0,1,0,0)"
font-family="Sans" font-size="10" font-weight="400" font-style="normal" 
>
<path fill-rule="evenodd" d="M17.144,10.36"/>
</g>

<g fill="#070707" fill-opacity="1" stroke="none" transform="matrix(1,0,0,1,0,0)"
font-family="Sans" font-size="10" font-weight="400" font-style="normal" 
>
<path fill-rule="evenodd" d="M18.644,7.86 L19.644,7.86 L19.644,8.86 L18.644,8.86 L18.644,7.86"/>
</g>

<g fill="none" stroke="#070707" stroke-opacity="1" stroke-width="1" stroke-linecap="square" stroke-linejoin="bevel" transform="matrix(1,0,0,1,0,0)"
font-family="Sans" font-size="10" font-weight="400" font-style="normal" 
>
<path fill-rule="evenodd" d="M19.144,8.36"/>
</g>
</g>
</svg>
