<?xml version="1.0" encoding="UTF-8" standalone="no"?>
<svg width="7.76111mm" height="4.23333mm"
 viewBox="0 0 22 12"
 xmlns="http://www.w3.org/2000/svg" xmlns:xlink="http://www.w3.org/1999/xlink"  version="1.2" baseProfile="tiny">
<title>WRECKS01</title>
<desc>wreck showing any portion of hull or superstructure at level of chart datum</desc>
<defs>
</defs>
<g fill="none" stroke="black" vector-effect="non-scaling-stroke" stroke-width="1" fill-rule="evenodd" stroke-linecap="square" stroke-linejoin="bevel" >

<path fill-rule="evenodd" d="M4.84,10.24"/>
<g fill="#000000" fill-opacity="1" stroke="#88988b" stroke-opacity="1" vector-effect="non-scaling-stroke" stroke-width="1" stroke-linecap="square" stroke-linejoin="bevel" transform="matrix(1,0,0,1,0,0)"
font-family="Sans" font-size="10" font-weight="400" font-style="normal" 
>
<path fill-rule="evenodd" d=""/>
</g>

<g fill="none" stroke="#000000" stroke-opacity="1" vector-effect="non-scaling-stroke" stroke-width="1" stroke-linecap="square" stroke-linejoin="bevel" transform="matrix(1,0,0,1,0,0)"
font-family="Sans" font-size="10" font-weight="400" font-style="normal" 
>
</g>

<g fill="none" stroke="#88988b" stroke-opacity="1" stroke-width="3" stroke-linecap="square" stroke-linejoin="bevel" transform="matrix(1,0,0,1,0,0)"
font-family="Sans" font-size="10" font-weight="400" font-style="normal" 
>
<path fill-rule="evenodd" d="M4.84,10.24 L10.84,8.24 L9.84,9.24 L9.84,10.24 L4.84,10.24 M12.84,10.24 C12.84,10.7923 12.3923,11.24 11.84,11.24 C11.2877,11.24 10.84,10.7923 10.84,10.24 C10.84,9.68772 11.2877,9.24 11.84,9.24 C12.3923,9.24 12.84,9.68772 12.84,10.24 M-0.16,10.24 L9.84,10.24 M12.84,10.24"/>
<path fill-rule="evenodd" d="M12.84,10.24 L20.84,10.24 M10.84,6.24 L12.84,0.24"/>
</g>
</g>
</svg>
