<?xml version="1.0" encoding="UTF-8" standalone="no"?>
<svg width="18.3444mm" height="5.29167mm"
 viewBox="0 0 52 15"
 xmlns="http://www.w3.org/2000/svg" xmlns:xlink="http://www.w3.org/1999/xlink"  version="1.2" baseProfile="tiny">
<title>DQUALU01</title>
<desc>pattern of symbols for a chart with quality not assessed</desc>
<defs>
</defs>
<g fill="none" stroke="black" vector-effect="non-scaling-stroke" stroke-width="1" fill-rule="evenodd" stroke-linecap="square" stroke-linejoin="bevel" >

<g fill="none" stroke="#88988b" stroke-opacity="1" stroke-width="1" stroke-linecap="square" stroke-linejoin="bevel" transform="matrix(1,0,0,1,0,0)"
font-family="Sans" font-size="10" font-weight="400" font-style="normal" 
>
<path fill-rule="evenodd" d="M6.352,-0.592 L4.352,0.408 L3.352,0.408 L2.352,1.408 L1.352,2.408 L0.352,4.408 L0.352,5.408 L-0.648,6.408 L0.352,8.408 L0.352,9.408 L1.352,11.408 L2.352,12.408 L4.352,13.408 L5.352,13.408"/>
<path fill-rule="evenodd" d="M5.352,0.408 L45.352,0.408 L47.352,0.408 L48.352,1.408 L49.352,2.408 L50.352,3.408 L50.352,4.408 L51.352,5.408 L51.352,6.408 L51.352,8.408 L50.352,9.408 L50.352,10.408 L49.352,11.408 L48.352,12.408 L47.352,13.408 L46.352,13.408 L45.352,13.408 L5.352,13.408"/>
<path fill-rule="evenodd" d="M22.352,3.408 L22.352,9.408 L23.352,10.408 L24.352,11.408 L26.352,11.408 L27.352,10.408 L28.352,10.408 L28.352,9.408 L28.352,3.408"/>
</g>
</g>
</svg>
