<?xml version="1.0" encoding="UTF-8" standalone="no"?>
<svg width="18.3444mm" height="5.29167mm"
 viewBox="0 0 52 15"
 xmlns="http://www.w3.org/2000/svg" xmlns:xlink="http://www.w3.org/1999/xlink"  version="1.2" baseProfile="tiny">
<title>DQUALD01</title>
<desc>pattern of symbols for an unreliable chart</desc>
<defs>
</defs>
<g fill="none" stroke="black" vector-effect="non-scaling-stroke" stroke-width="1" fill-rule="evenodd" stroke-linecap="square" stroke-linejoin="bevel" >

<g fill="none" stroke="#88988b" stroke-opacity="1" stroke-width="1" stroke-linecap="square" stroke-linejoin="bevel" transform="matrix(1,0,0,1,0,0)"
font-family="Sans" font-size="10" font-weight="400" font-style="normal" 
>
<path fill-rule="evenodd" d="M40.408,3.344 L34.408,10.344"/>
<path fill-rule="evenodd" d="M34.408,3.344 L40.408,10.344"/>
<path fill-rule="evenodd" d="M16.408,3.344 L10.408,11.344"/>
<path fill-rule="evenodd" d="M10.408,3.344 L16.408,11.344"/>
<path fill-rule="evenodd" d="M6.408,-0.656 L4.408,0.344 L3.408,0.344 L2.408,1.344 L1.408,2.344 L0.408,4.344 L0.408,5.344 L-0.592,6.344 L0.408,8.344 L0.408,9.344 L1.408,11.344 L2.408,12.344 L4.408,13.344 L5.408,13.344"/>
<path fill-rule="evenodd" d="M5.408,0.344 L45.408,0.344 L47.408,0.344 L48.408,1.344 L49.408,2.344 L50.408,3.344 L50.408,4.344 L51.408,5.344 L51.408,6.344 L51.408,8.344 L50.408,9.344 L50.408,11.344 L49.408,11.344 L48.408,12.344 L47.408,13.344 L46.408,13.344 L45.408,13.344 L5.408,13.344"/>
<path fill-rule="evenodd" d="M8.408,7.344 L18.408,7.344"/>
<path fill-rule="evenodd" d="M32.408,7.344 L43.408,7.344"/>
</g>
</g>
</svg>
