<?xml version="1.0" encoding="UTF-8" standalone="no"?>
<svg width="18.3444mm" height="5.29167mm"
 viewBox="0 0 52 15"
 xmlns="http://www.w3.org/2000/svg" xmlns:xlink="http://www.w3.org/1999/xlink"  version="1.2" baseProfile="tiny">
<title>DQUALC01</title>
<desc>pattern of symbols for a low accuracy or incomplete chart</desc>
<defs>
</defs>
<g fill="none" stroke="black" vector-effect="non-scaling-stroke" stroke-width="1" fill-rule="evenodd" stroke-linecap="square" stroke-linejoin="bevel" >

<g fill="none" stroke="#88988b" stroke-opacity="1" stroke-width="1" stroke-linecap="square" stroke-linejoin="bevel" transform="matrix(1,0,0,1,0,0)"
font-family="Sans" font-size="10" font-weight="400" font-style="normal" 
>
<path fill-rule="evenodd" d="M45.408,3.536 L39.408,10.536"/>
<path fill-rule="evenodd" d="M39.408,3.536 L45.408,10.536"/>
<path fill-rule="evenodd" d="M28.408,3.536 L23.408,10.536"/>
<path fill-rule="evenodd" d="M23.408,3.536 L28.408,10.536"/>
<path fill-rule="evenodd" d="M12.408,3.536 L6.408,11.536"/>
<path fill-rule="evenodd" d="M6.408,3.536 L12.408,11.536"/>
<path fill-rule="evenodd" d="M6.408,-0.464 L4.408,0.536 L3.408,0.536 L2.408,1.536 L1.408,2.536 L0.408,3.536 L0.408,5.536 L-0.592,6.536 L0.408,8.536 L0.408,9.536 L1.408,11.536 L2.408,12.536 L4.408,13.536 L5.408,13.536"/>
<path fill-rule="evenodd" d="M5.408,-0.464 L45.408,-0.464 L47.408,0.536 L48.408,1.536 L49.408,2.536 L50.408,3.536 L50.408,4.536 L51.408,5.536 L51.408,6.536 L51.408,8.536 L50.408,9.536 L50.408,10.536 L49.408,11.536 L48.408,12.536 L47.408,13.536 L46.408,13.536 L45.408,13.536 L5.408,13.536"/>
<path fill-rule="evenodd" d="M4.408,7.536 L13.408,7.536"/>
<path fill-rule="evenodd" d="M37.408,7.536 L47.408,7.536"/>
<path fill-rule="evenodd" d="M20.408,7.536 L30.408,7.536"/>
</g>
</g>
</svg>
