<?xml version="1.0" encoding="UTF-8" standalone="no"?>
<svg width="9.17222mm" height="3.88056mm"
 viewBox="0 0 26 11"
 xmlns="http://www.w3.org/2000/svg" xmlns:xlink="http://www.w3.org/1999/xlink"  version="1.2" baseProfile="tiny">
<title>FSHHAV02</title>
<desc>pattern of symbols for a fish haven</desc>
<defs>
</defs>
<g fill="none" stroke="black" vector-effect="non-scaling-stroke" stroke-width="1" fill-rule="evenodd" stroke-linecap="square" stroke-linejoin="bevel" >

<g fill="none" stroke="#88988b" stroke-opacity="1" stroke-width="1" stroke-linecap="square" stroke-linejoin="bevel" transform="matrix(1,0,0,1,0,0)"
font-family="Sans" font-size="10" font-weight="400" font-style="normal" 
>
<path fill-rule="evenodd" d="M3.6,4.6 L0.6,0.6 M3.6,5.6 L-0.4,9.6 M3.6,5.6 L5.6,3.6 L7.6,1.6 L10.6,0.6 L13.6,-0.4 L16.6,-0.4"/>
<path fill-rule="evenodd" d="M16.6,-0.4 L19.6,0.6 L22.6,1.6 L24.6,3.6 L25.6,4.6 M3.6,4.6 L6.6,7.6 L9.6,9.6 L13.6,9.6 L16.6,9.6 L18.6,9.6"/>
<path fill-rule="evenodd" d="M18.6,9.6 L21.6,8.6 L23.6,6.6 L25.6,4.6 M20.6,1.6 L19.6,3.6 L19.6,6.6 L21.6,8.6"/>
</g>
</g>
</svg>
