<?xml version="1.0" encoding="UTF-8" standalone="no"?>
<svg width="8.46667mm" height="4.93889mm"
 viewBox="0 0 24 14"
 xmlns="http://www.w3.org/2000/svg" xmlns:xlink="http://www.w3.org/1999/xlink"  version="1.2" baseProfile="tiny">
<title>MARCUL02</title>
<desc>pattern of symbols for a marine farm</desc>
<defs>
</defs>
<g fill="none" stroke="black" vector-effect="non-scaling-stroke" stroke-width="1" fill-rule="evenodd" stroke-linecap="square" stroke-linejoin="bevel" >

<g fill="none" stroke="#88988b" stroke-opacity="1" stroke-width="1" stroke-linecap="square" stroke-linejoin="bevel" transform="matrix(1,0,0,1,0,0)"
font-family="Sans" font-size="10" font-weight="400" font-style="normal" 
>
<path fill-rule="evenodd" d="M3.008,9.144 L7.008,5.144 L9.008,3.144 L11.008,3.144 L13.008,3.144 L15.008,3.144 L17.008,4.144 L18.008,4.144 L19.008,5.144 L20.008,6.144 L19.008,7.144 L17.008,8.144 L16.008,9.144 L14.008,9.144 L13.008,9.144 L11.008,9.144 L9.008,9.144 L8.008,8.144 L3.008,4.144"/>
<path fill-rule="evenodd" d="M0.008,3.144 L0.008,0.144 L22.008,0.144 L22.008,3.144"/>
<path fill-rule="evenodd" d="M0.008,9.144 L0.008,13.144 L22.008,13.144 L22.008,9.144"/>
<path fill-rule="evenodd" d="M5.008,9.144 L5.008,13.144"/>
<path fill-rule="evenodd" d="M17.008,9.144 L17.008,13.144"/>
<path fill-rule="evenodd" d="M11.008,9.144 L11.008,12.144"/>
<path fill-rule="evenodd" d="M5.008,0.144 L5.008,3.144"/>
<path fill-rule="evenodd" d="M17.008,0.144 L17.008,3.144"/>
<path fill-rule="evenodd" d="M11.008,0.144 L11.008,3.144"/>
</g>
</g>
</svg>
