<?xml version="1.0" encoding="UTF-8" standalone="no"?>
<svg width="17.6389mm" height="15.5222mm"
 viewBox="0 0 50 44"
 xmlns="http://www.w3.org/2000/svg" xmlns:xlink="http://www.w3.org/1999/xlink"  version="1.2" baseProfile="tiny">
<title>RCKLDG01</title>
<desc>rock or coral drying ledges</desc>
<defs>
</defs>
<g fill="none" stroke="black" vector-effect="non-scaling-stroke" stroke-width="1" fill-rule="evenodd" stroke-linecap="square" stroke-linejoin="bevel" >

<g fill="none" stroke="#937427" stroke-opacity="1" stroke-width="1" stroke-linecap="square" stroke-linejoin="bevel" transform="matrix(1,0,0,1,0,0)"
font-family="Sans" font-size="10" font-weight="400" font-style="normal" 
>
<path fill-rule="evenodd" d="M6.92,42.272 L13.92,37.272"/>
<path fill-rule="evenodd" d="M4.92,6.272 L7.92,16.272"/>
<path fill-rule="evenodd" d="M24.92,19.272 L19.92,26.272"/>
<path fill-rule="evenodd" d="M19.92,7.272 L21.92,0.272"/>
<path fill-rule="evenodd" d="M27.92,31.272 L28.92,40.272"/>
<path fill-rule="evenodd" d="M45.92,30.272 L48.92,22.272"/>
<path fill-rule="evenodd" d="M45.92,11.272 L37.92,8.272"/>
<path fill-rule="evenodd" d="M7.92,16.272 L-0.08,12.272"/>
<path fill-rule="evenodd" d="M19.92,26.272 L18.92,17.272"/>
<path fill-rule="evenodd" d="M6.92,42.272 L7.92,34.272"/>
<path fill-rule="evenodd" d="M27.92,31.272 L34.92,36.272"/>
<path fill-rule="evenodd" d="M48.92,22.272 L40.92,25.272"/>
<path fill-rule="evenodd" d="M37.92,8.272 L44.92,4.272"/>
<path fill-rule="evenodd" d="M21.92,0.272 L25.92,7.272"/>
</g>
</g>
</svg>
