<?xml version="1.0" encoding="UTF-8" standalone="no"?>
<svg width="31.0444mm" height="5.99722mm"
 viewBox="0 0 88 17"
 xmlns="http://www.w3.org/2000/svg" xmlns:xlink="http://www.w3.org/1999/xlink"  version="1.2" baseProfile="tiny">
<title>ACHRES51</title>
<desc>boundary of an area where anchoring is prohibited or restricted</desc>
<defs>
</defs>
<g fill="none" stroke="black" vector-effect="non-scaling-stroke" stroke-width="1" fill-rule="evenodd" stroke-linecap="square" stroke-linejoin="bevel" >

<g fill="none" stroke="#c64dbb" stroke-opacity="1" stroke-width="1" stroke-linecap="square" stroke-linejoin="bevel" transform="matrix(1,0,0,1,0,0)"
font-family="Sans" font-size="10" font-weight="400" font-style="normal" 
>
<path fill-rule="evenodd" d="M24.048,0.016 L24.048,16.016"/>
<path fill-rule="evenodd" d="M19.048,5.016 L29.048,5.016"/>
<path fill-rule="evenodd" d="M18.048,13.016 L21.048,16.016 L27.048,16.016 L31.048,13.016"/>
<path fill-rule="evenodd" d="M31.048,2.016 L17.048,16.016"/>
<path fill-rule="evenodd" d="M57.048,7.016 L67.048,7.016"/>
<path fill-rule="evenodd" d="M62.048,7.016 L62.048,12.016"/>
<path fill-rule="evenodd" d="M0.048,7.016 L9.048,7.016"/>
<path fill-rule="evenodd" d="M77.048,7.016 L87.048,7.016"/>
<path fill-rule="evenodd" d="M82.048,7.016 L82.048,13.016"/>
<path fill-rule="evenodd" d="M38.048,7.016 L48.048,7.016"/>
<path fill-rule="evenodd" d="M43.048,7.016 L43.048,13.016"/>
<path fill-rule="evenodd" d="M5.048,7.016 L5.048,13.016"/>
</g>
</g>
</svg>
