<?xml version="1.0" encoding="UTF-8" standalone="no"?>
<svg width="34.5722mm" height="6.35mm"
 viewBox="0 0 98 18"
 xmlns="http://www.w3.org/2000/svg" xmlns:xlink="http://www.w3.org/1999/xlink"  version="1.2" baseProfile="tiny">
<title>CTNARE51</title>
<desc>boundary of area with a specific caution</desc>
<defs>
</defs>
<g fill="none" stroke="black" vector-effect="non-scaling-stroke" stroke-width="1" fill-rule="evenodd" stroke-linecap="square" stroke-linejoin="bevel" >

<g fill="none" stroke="#c64dbb" stroke-opacity="1" stroke-width="1" stroke-linecap="square" stroke-linejoin="bevel" transform="matrix(1,0,0,1,0,0)"
font-family="Sans" font-size="10" font-weight="400" font-style="normal" 
>
<path fill-rule="evenodd" d="M-0.216,5.84 L18.784,5.84"/>
<path fill-rule="evenodd" d="M77.784,5.84 L96.784,5.84"/>
<path fill-rule="evenodd" d="M82.784,5.84 L87.784,10.84 L93.784,5.84"/>
<path fill-rule="evenodd" d="M51.784,5.84 L70.784,5.84"/>
<path fill-rule="evenodd" d="M55.784,5.84 L61.784,10.84 L66.784,5.84"/>
<path fill-rule="evenodd" d="M3.784,5.84 L8.784,10.84 L14.784,5.84"/>
<path fill-rule="evenodd" d="M43.784,7.84 C43.784,12.2583 40.2023,15.84 35.784,15.84 C31.3657,15.84 27.784,12.2583 27.784,7.84 C27.784,3.42172 31.3657,-0.16 35.784,-0.16 C40.2023,-0.16 43.784,3.42172 43.784,7.84 "/>
<path fill-rule="evenodd" d="M35.784,2.84 L35.784,9.84"/>
<path fill-rule="evenodd" d="M34.784,12.84 L36.784,12.84"/>
</g>
</g>
</svg>
