<?xml version="1.0" encoding="UTF-8" standalone="no"?>
<svg width="29.2806mm" height="6.35mm"
 viewBox="0 0 83 18"
 xmlns="http://www.w3.org/2000/svg" xmlns:xlink="http://www.w3.org/1999/xlink"  version="1.2" baseProfile="tiny">
<title>DWLDEF01</title>
<desc>deep water route centreline, direction not defined in the data</desc>
<defs>
</defs>
<g fill="none" stroke="black" vector-effect="non-scaling-stroke" stroke-width="1" fill-rule="evenodd" stroke-linecap="square" stroke-linejoin="bevel" >

<g fill="none" stroke="#c64dbb" stroke-opacity="1" stroke-width="1" stroke-linecap="square" stroke-linejoin="bevel" transform="matrix(1,0,0,1,0,0)"
font-family="Sans" font-size="10" font-weight="400" font-style="normal" 
>
<path fill-rule="evenodd" d="M61.248,2.176 L61.248,12.176 L65.248,12.176 L68.248,10.176 L68.248,4.176 L64.248,2.176 L61.248,2.176"/>
<path fill-rule="evenodd" d="M72.248,2.176 L74.248,12.176 L76.248,2.176 L79.248,12.176 L81.248,2.176"/>
<path fill-rule="evenodd" d="M0.248,7.176 L10.248,7.176"/>
<path fill-rule="evenodd" d="M45.248,7.176 L55.248,7.176"/>
<path fill-rule="evenodd" d="M21.248,12.176 L15.248,7.176 L21.248,2.176"/>
<path fill-rule="evenodd" d="M64.248,16.176 L77.248,16.176"/>
<path fill-rule="evenodd" d="M24.248,3.176 L24.248,2.176 L25.248,1.176 L25.248,0.176 L26.248,0.176 L27.248,0.176 L28.248,0.176 L29.248,0.176 L30.248,1.176 L30.248,2.176 L31.248,3.176 L30.248,4.176 L30.248,5.176 L29.248,6.176 L28.248,7.176 L28.248,8.176 L27.248,8.176 L27.248,9.176 L27.248,10.176 L27.248,11.176"/>
</g>

<g fill="none" stroke="#c64dbb" stroke-opacity="1" stroke-width="2" stroke-linecap="square" stroke-linejoin="bevel" transform="matrix(1,0,0,1,0,0)"
font-family="Sans" font-size="10" font-weight="400" font-style="normal" 
>
<path fill-rule="evenodd" d="M27.248,14.176 L28.248,14.176"/>
</g>

<g fill="none" stroke="#c64dbb" stroke-opacity="1" stroke-width="1" stroke-linecap="square" stroke-linejoin="bevel" transform="matrix(1,0,0,1,0,0)"
font-family="Sans" font-size="10" font-weight="400" font-style="normal" 
>
<path fill-rule="evenodd" d="M33.248,12.176 L40.248,7.176 L33.248,2.176"/>
</g>
</g>
</svg>
