<?xml version="1.0" encoding="UTF-8" standalone="no"?>
<svg width="31.0444mm" height="7.05556mm"
 viewBox="0 0 88 20"
 xmlns="http://www.w3.org/2000/svg" xmlns:xlink="http://www.w3.org/1999/xlink"  version="1.2" baseProfile="tiny">
<title>ENTRES51</title>
<desc>boundary of an area where entry is prohibited or restricted</desc>
<defs>
</defs>
<g fill="none" stroke="black" vector-effect="non-scaling-stroke" stroke-width="1" fill-rule="evenodd" stroke-linecap="square" stroke-linejoin="bevel" >

<g fill="none" stroke="#c64dbb" stroke-opacity="1" stroke-width="1" stroke-linecap="square" stroke-linejoin="bevel" transform="matrix(1,0,0,1,0,0)"
font-family="Sans" font-size="10" font-weight="400" font-style="normal" 
>
<path fill-rule="evenodd" d="M57.048,8.616 L67.048,8.616"/>
<path fill-rule="evenodd" d="M62.048,8.616 L62.048,13.616"/>
<path fill-rule="evenodd" d="M0.048,8.616 L9.048,8.616"/>
<path fill-rule="evenodd" d="M77.048,8.616 L87.048,8.616"/>
<path fill-rule="evenodd" d="M82.048,8.616 L82.048,14.616"/>
<path fill-rule="evenodd" d="M38.048,8.616 L48.048,8.616"/>
<path fill-rule="evenodd" d="M43.048,8.616 L43.048,14.616"/>
<path fill-rule="evenodd" d="M5.048,8.616 L5.048,14.616"/>
<path fill-rule="evenodd" d="M34.048,8.616 C34.048,13.5866 30.0186,17.616 25.048,17.616 C20.0774,17.616 16.048,13.5866 16.048,8.616 C16.048,3.64544 20.0774,-0.384 25.048,-0.384 C30.0186,-0.384 34.048,3.64544 34.048,8.616 "/>
<path fill-rule="evenodd" d="M20.048,9.616 L30.048,9.616"/>
</g>
</g>
</svg>
