<?xml version="1.0" encoding="UTF-8" standalone="no"?>
<svg width="30.6917mm" height="4.93889mm"
 viewBox="0 0 87 14"
 xmlns="http://www.w3.org/2000/svg" xmlns:xlink="http://www.w3.org/1999/xlink"  version="1.2" baseProfile="tiny">
<title>FSHRES51</title>
<desc>boundary of an area where trawling or fishing is prohibited or restricted</desc>
<defs>
</defs>
<g fill="none" stroke="black" vector-effect="non-scaling-stroke" stroke-width="1" fill-rule="evenodd" stroke-linecap="square" stroke-linejoin="bevel" >

<g fill="none" stroke="#c64dbb" stroke-opacity="1" stroke-width="1" stroke-linecap="square" stroke-linejoin="bevel" transform="matrix(1,0,0,1,0,0)"
font-family="Sans" font-size="10" font-weight="400" font-style="normal" 
>
<path fill-rule="evenodd" d="M57.048,3.272 L67.048,3.272"/>
<path fill-rule="evenodd" d="M62.048,3.272 L62.048,8.272"/>
<path fill-rule="evenodd" d="M0.048,3.272 L9.048,3.272"/>
<path fill-rule="evenodd" d="M76.048,3.272 L86.048,3.272"/>
<path fill-rule="evenodd" d="M81.048,3.272 L81.048,9.272"/>
<path fill-rule="evenodd" d="M38.048,3.272 L48.048,3.272"/>
<path fill-rule="evenodd" d="M43.048,3.272 L43.048,9.272"/>
<path fill-rule="evenodd" d="M5.048,3.272 L5.048,9.272"/>
<path fill-rule="evenodd" d="M14.048,9.272 L18.048,5.272 L20.048,4.272 L21.048,2.272 L23.048,2.272 L25.048,1.272 L27.048,1.272 L29.048,1.272 L31.048,2.272 L33.048,3.272 L34.048,4.272 L35.048,5.272 L34.048,7.272 L33.048,8.272 L32.048,8.272 L30.048,9.272 L28.048,10.272 L25.048,10.272 L23.048,9.272 L21.048,8.272 L20.048,7.272 L18.048,6.272"/>
<path fill-rule="evenodd" d="M17.048,5.272 L15.048,2.272"/>
<path fill-rule="evenodd" d="M18.048,6.272 L17.048,5.272"/>
<path fill-rule="evenodd" d="M33.048,0.272 L21.048,12.272"/>
</g>
</g>
</svg>
