<?xml version="1.0" encoding="UTF-8" standalone="no"?>
<svg width="29.2806mm" height="3.88056mm"
 viewBox="0 0 83 11"
 xmlns="http://www.w3.org/2000/svg" xmlns:xlink="http://www.w3.org/1999/xlink"  version="1.2" baseProfile="tiny">
<title>MARSYS51</title>
<desc>boundary between IALA-A and IALA-B systems of lateral buoys and beacons</desc>
<defs>
</defs>
<g fill="none" stroke="black" vector-effect="non-scaling-stroke" stroke-width="1" fill-rule="evenodd" stroke-linecap="square" stroke-linejoin="bevel" >

<g fill="none" stroke="#88988b" stroke-opacity="1" stroke-width="1" stroke-linecap="square" stroke-linejoin="bevel" transform="matrix(1,0,0,1,0,0)"
font-family="Sans" font-size="10" font-weight="400" font-style="normal" 
>
<path fill-rule="evenodd" d="M48.832,5.528 L57.832,5.528"/>
<path fill-rule="evenodd" d="M72.832,5.528 L81.832,5.528"/>
<path fill-rule="evenodd" d="M41.832,5.528 L31.832,5.528"/>
<path fill-rule="evenodd" d="M19.832,9.528 L22.832,-0.472 L26.832,9.528"/>
<path fill-rule="evenodd" d="M21.832,5.528 L25.832,5.528"/>
<path fill-rule="evenodd" d="M65.832,0.528 L62.832,0.528 L62.832,10.528 L65.832,10.528"/>
<path fill-rule="evenodd" d="M62.832,5.528 L65.832,5.528"/>
<path fill-rule="evenodd" d="M67.832,1.528 L67.832,4.528"/>
<path fill-rule="evenodd" d="M67.832,6.528 L67.832,9.528"/>
<path fill-rule="evenodd" d="M65.832,0.528 L67.832,1.528"/>
<path fill-rule="evenodd" d="M65.832,10.528 L67.832,8.528"/>
<path fill-rule="evenodd" d="M67.832,4.528 L65.832,5.528 L67.832,6.528"/>
<path fill-rule="evenodd" d="M15.832,5.528 L6.832,5.528"/>
<path fill-rule="evenodd" d="M-0.168,5.528 L-0.168,4.528"/>
</g>
</g>
</svg>
