<?xml version="1.0" encoding="UTF-8" standalone="no"?>
<svg width="2.46944mm" height="2.46944mm"
 viewBox="0 0 7 7"
 xmlns="http://www.w3.org/2000/svg" xmlns:xlink="http://www.w3.org/1999/xlink"  version="1.2" baseProfile="tiny">
<title>PLNRTE03</title>
<desc>planned route for own ship</desc>
<defs>
</defs>
<g fill="none" stroke="black" vector-effect="non-scaling-stroke" stroke-width="1" fill-rule="evenodd" stroke-linecap="square" stroke-linejoin="bevel" >

<g fill="none" stroke="#da462d" stroke-opacity="1" stroke-width="1" stroke-linecap="square" stroke-linejoin="bevel" transform="matrix(1,0,0,1,0,0)"
font-family="Sans" font-size="10" font-weight="400" font-style="normal" 
>
</g>

<g fill="#da462d" fill-opacity="1" stroke="#da462d" stroke-opacity="1" stroke-width="1" stroke-linecap="square" stroke-linejoin="bevel" transform="matrix(1,0,0,1,0,0)"
font-family="Sans" font-size="10" font-weight="400" font-style="normal" 
>
<path fill-rule="evenodd" d="M4.704,2.344 C4.704,3.44857 3.80857,4.344 2.704,4.344 C1.59943,4.344 0.704,3.44857 0.704,2.344 C0.704,1.23943 1.59943,0.344 2.704,0.344 C3.80857,0.344 4.704,1.23943 4.704,2.344 "/>
</g>

<g fill="none" stroke="#da462d" stroke-opacity="1" stroke-width="1" stroke-linecap="square" stroke-linejoin="bevel" transform="matrix(1,0,0,1,0,0)"
font-family="Sans" font-size="10" font-weight="400" font-style="normal" 
>
</g>

<g fill="#da462d" fill-opacity="1" stroke="#da462d" stroke-opacity="1" stroke-width="1" stroke-linecap="square" stroke-linejoin="bevel" transform="matrix(1,0,0,1,0,0)"
font-family="Sans" font-size="10" font-weight="400" font-style="normal" 
>
<path fill-rule="evenodd" d="M2.704,2.344"/>
</g>

<g fill="none" stroke="#da462d" stroke-opacity="1" stroke-width="1" stroke-linecap="square" stroke-linejoin="bevel" transform="matrix(1,0,0,1,0,0)"
font-family="Sans" font-size="10" font-weight="400" font-style="normal" 
>
<path fill-rule="evenodd" d="M2.704,2.344"/>
</g>
</g>
</svg>
