<?xml version="1.0" encoding="UTF-8" standalone="no"?>
<svg width="16.9333mm" height="5.29167mm"
 viewBox="0 0 48 15"
 xmlns="http://www.w3.org/2000/svg" xmlns:xlink="http://www.w3.org/1999/xlink"  version="1.2" baseProfile="tiny">
<title>QUESMRK1</title>
<desc>object which is not sufficiently described to be symbolized, or for which no symbol exists in the symbol library</desc>
<defs>
</defs>
<g fill="none" stroke="black" vector-effect="non-scaling-stroke" stroke-width="1" fill-rule="evenodd" stroke-linecap="square" stroke-linejoin="bevel" >

<g fill="none" stroke="#c64dbb" stroke-opacity="1" stroke-width="1" stroke-linecap="square" stroke-linejoin="bevel" transform="matrix(1,0,0,1,0,0)"
font-family="Sans" font-size="10" font-weight="400" font-style="normal" 
>
<path fill-rule="evenodd" d="M27.92,3.056 L27.92,2.056 L28.92,1.056 L29.92,0.056 L30.92,0.056 L31.92,0.056 L32.92,0.056 L33.92,1.056 L33.92,2.056 L34.92,3.056 L34.92,4.056 L33.92,4.056 L33.92,5.056 L32.92,6.056 L32.92,7.056 L31.92,7.056 L30.92,8.056 L30.92,9.056 L30.92,10.056 L30.92,11.056"/>
</g>

<g fill="none" stroke="#c64dbb" stroke-opacity="1" stroke-width="2" stroke-linecap="square" stroke-linejoin="bevel" transform="matrix(1,0,0,1,0,0)"
font-family="Sans" font-size="10" font-weight="400" font-style="normal" 
>
<path fill-rule="evenodd" d="M29.92,14.056 L31.92,14.056"/>
<path fill-rule="evenodd" d="M-0.08,8.056 L9.92,8.056"/>
<path fill-rule="evenodd" d="M15.92,8.056 L25.92,8.056"/>
<path fill-rule="evenodd" d="M36.92,8.056 L45.92,8.056"/>
</g>
</g>
</svg>
